ffmpeg version 4.1.3-0york1~16.04 Copyright (c) 2000-2019 the FFmpeg developers
  built with gcc 5.4.0 (Ubuntu 5.4.0-6ubuntu1~16.04.11) 20160609
  configuration: --prefix=/usr --extra-version='0york1~16.04' --toolchain=hardened --libdir=/usr/lib/x86_64-linux-gnu --incdir=/usr/include/x86_64-linux-gnu --arch=amd64 --enable-gpl --disable-stripping --enable-avresample --disable-filter=resample --enable-avisynth --enable-gnutls --enable-ladspa --enable-libaom --enable-libass --enable-libbluray --enable-libbs2b --enable-libcaca --enable-libcdio --enable-libcodec2 --enable-libflite --enable-libfontconfig --enable-libfreetype --enable-libfribidi --enable-libgme --enable-libgsm --enable-libjack --enable-libmp3lame --enable-libmysofa --enable-libopenjpeg --enable-libopenmpt --enable-libopus --enable-libpulse --enable-librsvg --enable-librubberband --enable-libshine --enable-libsnappy --enable-libsoxr --enable-libspeex --enable-libssh --enable-libtheora --enable-libtwolame --enable-libvidstab --enable-libvorbis --enable-libvpx --enable-libwavpack --enable-libwebp --enable-libx265 --enable-libxml2 --enable-libxvid --enable-libzmq --enable-libzvbi --enable-lv2 --enable-omx --enable-openal --enable-opengl --enable-sdl2 --enable-nonfree --enable-libfdk-aac --enable-libdc1394 --enable-libdrm --enable-libiec61883 --enable-chromaprint --enable-frei0r --enable-libx264 --enable-shared
  libavutil      56. 22.100 / 56. 22.100
  libavcodec     58. 35.100 / 58. 35.100
  libavformat    58. 20.100 / 58. 20.100
  libavdevice    58.  5.100 / 58.  5.100
  libavfilter     7. 40.101 /  7. 40.101
  libavresample   4.  0.  0 /  4.  0.  0
  libswscale      5.  3.100 /  5.  3.100
  libswresample   3.  3.100 /  3.  3.100
  libpostproc    55.  3.100 / 55.  3.100
Input #0, mov,mp4,m4a,3gp,3g2,mj2, from '/home/gdo/html/playtube//upload/videos/2019/05/oJd4DDM8eRBp5ovPYnsJ_17_32b06fdbcb40685b4a63416b911fa88c_video.mp4':
  Metadata:
    major_brand     : mp42
    minor_version   : 0
    compatible_brands: mp42mp41isomavc1
    creation_time   : 2019-01-21T09:01:13.000000Z
  Duration: 00:28:30.12, start: 0.000000, bitrate: 490 kb/s
    Stream #0:0(und): Video: h264 (High) (avc1 / 0x31637661), yuv420p(tv, bt709), 1920x1080, 349 kb/s, 25 fps, 25 tbr, 25 tbn, 50 tbc (default)
    Metadata:
      creation_time   : 2019-01-21T09:01:13.000000Z
      handler_name    : L-SMASH Video Handler
      encoder         : AVC Coding
    Stream #0:1(und): Audio: aac (LC) (mp4a / 0x6134706D), 48000 Hz, stereo, fltp, 137 kb/s (default)
    Metadata:
      creation_time   : 2019-01-21T09:01:13.000000Z
      handler_name    : L-SMASH Audio Handler
Stream mapping:
  Stream #0:0 -> #0:0 (h264 (native) -> h264 (libx264))
  Stream #0:1 -> #0:1 (aac (native) -> aac (native))
Press [q] to stop, [?] for help
[libx264 @ 0x55e5d1960f00] using cpu capabilities: MMX2 SSE2Fast SSSE3 SSE4.2 AVX FMA3 BMI2 AVX2
[libx264 @ 0x55e5d1960f00] profile High, level 2.1
[libx264 @ 0x55e5d1960f00] 264 - core 155 r2917 0a84d98 - H.264/MPEG-4 AVC codec - Copyleft 2003-2018 - http://www.videolan.org/x264.html - options: cabac=1 ref=2 deblock=1:0:0 analyse=0x3:0x113 me=hex subme=6 psy=1 psy_rd=1.00:0.00 mixed_ref=1 me_range=16 chroma_me=1 trellis=1 8x8dct=1 cqm=0 deadzone=21,11 fast_pskip=1 chroma_qp_offset=-2 threads=1 lookahead_threads=1 sliced_threads=0 nr=0 decimate=1 interlaced=0 bluray_compat=0 constrained_intra=0 bframes=3 b_pyramid=2 b_adapt=1 b_bias=0 direct=1 weightb=1 open_gop=0 weightp=1 keyint=250 keyint_min=25 scenecut=40 intra_refresh=0 rc_lookahead=30 rc=crf mbtree=1 crf=26.0 qcomp=0.60 qpmin=0 qpmax=69 qpstep=4 ip_ratio=1.40 aq=1:1.00
Output #0, mp4, to '/home/gdo/html/playtube//upload/videos/2019/05/oJd4DDM8eRBp5ovPYnsJ_17_32b06fdbcb40685b4a63416b911fa88c_video_240p_converted.mp4':
  Metadata:
    major_brand     : mp42
    minor_version   : 0
    compatible_brands: mp42mp41isomavc1
    encoder         : Lavf58.20.100
    Stream #0:0(und): Video: h264 (libx264) (avc1 / 0x31637661), yuv420p(progressive), 426x240, q=-1--1, 25 fps, 12800 tbn, 25 tbc (default)
    Metadata:
      creation_time   : 2019-01-21T09:01:13.000000Z
      handler_name    : L-SMASH Video Handler
      encoder         : Lavc58.35.100 libx264
    Side data:
      cpb: bitrate max/min/avg: 0/0/0 buffer size: 0 vbv_delay: -1
    Stream #0:1(und): Audio: aac (LC) (mp4a / 0x6134706D), 48000 Hz, stereo, fltp, 128 kb/s (default)
    Metadata:
      creation_time   : 2019-01-21T09:01:13.000000Z
      handler_name    : L-SMASH Audio Handler
      encoder         : Lavc58.35.100 aac
frame=   41 fps=0.0 q=31.0 size=       0kB time=00:00:01.49 bitrate=   0.3kbits/s speed=2.97x    frame=   87 fps= 86 q=31.0 size=       0kB time=00:00:03.54 bitrate=   0.1kbits/s speed=3.51x    frame=  135 fps= 89 q=31.0 size=       0kB time=00:00:05.58 bitrate=   0.1kbits/s speed= 3.7x    frame=  180 fps= 90 q=31.0 size=       0kB time=00:00:07.57 bitrate=   0.1kbits/s speed=3.77x    frame=  226 fps= 90 q=31.0 size=       0kB time=00:00:09.17 bitrate=   0.0kbits/s speed=3.65x    frame=  276 fps= 91 q=31.0 size=       0kB time=00:00:11.22 bitrate=   0.0kbits/s speed=3.72x    frame=  325 fps= 92 q=31.0 size=       0kB time=00:00:13.26 bitrate=   0.0kbits/s speed=3.77x    frame=  378 fps= 94 q=31.0 size=       0kB time=00:00:15.31 bitrate=   0.0kbits/s speed=3.81x    frame=  429 fps= 95 q=31.0 size=       0kB time=00:00:17.36 bitrate=   0.0kbits/s speed=3.84x    frame=  481 fps= 96 q=31.0 size=       0kB time=00:00:19.41 bitrate=   0.0kbits/s speed=3.86x    frame=  531 fps= 96 q=31.0 size=     256kB time=00:00:20.94 bitrate= 100.1kbits/s speed=3.78x    frame=  580 fps= 96 q=31.0 size=     256kB time=00:00:22.99 bitrate=  91.2kbits/s speed= 3.8x    frame=  629 fps= 96 q=31.0 size=     256kB time=00:00:25.04 bitrate=  83.7kbits/s speed=3.82x    frame=  678 fps= 96 q=31.0 size=     256kB time=00:00:27.09 bitrate=  77.4kbits/s speed=3.84x    frame=  729 fps= 96 q=31.0 size=     256kB time=00:00:29.14 bitrate=  72.0kbits/s speed=3.86x    frame=  786 fps= 98 q=31.0 size=     256kB time=00:00:31.18 bitrate=  67.3kbits/s speed=3.87x    frame=  840 fps= 98 q=31.0 size=     256kB time=00:00:33.23 bitrate=  63.1kbits/s speed=3.88x    frame=  893 fps= 99 q=31.0 size=     512kB time=00:00:35.79 bitrate= 117.2kbits/s speed=3.95x    frame=  945 fps= 99 q=31.0 size=     512kB time=00:00:37.84 bitrate= 110.8kbits/s speed=3.96x    frame=  998 fps= 99 q=31.0 size=     512kB time=00:00:39.89 bitrate= 105.1kbits/s speed=3.96x    frame= 1051 fps= 99 q=31.0 size=     512kB time=00:00:41.96 bitrate= 100.0kbits/s speed=3.97x    frame= 1105 fps=100 q=31.0 size=     512kB time=00:00:44.50 bitrate=  94.3kbits/s speed=4.02x    frame= 1161 fps=100 q=31.0 size=     512kB time=00:00:46.54 bitrate=  90.1kbits/s speed=4.02x    frame= 1219 fps=101 q=31.0 size=     512kB time=00:00:48.59 bitrate=  86.3kbits/s speed=4.02x    frame= 1272 fps=101 q=31.0 size=     768kB time=00:00:50.66 bitrate= 124.2kbits/s speed=4.02x    frame= 1324 fps=101 q=31.0 size=     768kB time=00:00:52.69 bitrate= 119.4kbits/s speed=4.02x    frame= 1376 fps=101 q=31.0 size=     768kB time=00:00:54.99 bitrate= 114.4kbits/s speed=4.04x    frame= 1432 fps=102 q=31.0 size=     768kB time=00:00:57.30 bitrate= 109.8kbits/s speed=4.06x    frame= 1485 fps=102 q=31.0 size=     768kB time=00:00:59.34 bitrate= 106.0kbits/s speed=4.06x    frame= 1538 fps=102 q=31.0 size=     768kB time=00:01:01.39 bitrate= 102.5kbits/s speed=4.06x    frame= 1581 fps=101 q=31.0 size=     768kB time=00:01:02.93 bitrate= 100.0kbits/s speed=4.03x    frame= 1622 fps=101 q=31.0 size=     768kB time=00:01:04.46 bitrate=  97.6kbits/s speed=   4x    frame= 1666 fps=100 q=31.0 size=    1024kB time=00:01:06.51 bitrate= 126.1kbits/s speed=   4x    frame= 1707 fps=100 q=31.0 size=    1024kB time=00:01:08.05 bitrate= 123.3kbits/s speed=3.97x    frame= 1751 fps= 99 q=31.0 size=    1024kB time=00:01:10.10 bitrate= 119.7kbits/s speed=3.97x    frame= 1800 fps= 99 q=31.0 size=    1024kB time=00:01:12.14 bitrate= 116.3kbits/s speed=3.98x    frame= 1841 fps= 99 q=31.0 size=    1024kB time=00:01:13.68 bitrate= 113.8kbits/s speed=3.95x    frame= 1886 fps= 99 q=31.0 size=    1024kB time=00:01:15.73 bitrate= 110.8kbits/s speed=3.96x    frame= 1922 fps= 98 q=31.0 size=    1024kB time=00:01:16.77 bitrate= 109.3kbits/s speed=3.91x    frame= 1957 fps= 97 q=31.0 size=    1024kB time=00:01:18.29 bitrate= 107.1kbits/s speed=3.88x    frame= 1985 fps= 96 q=31.0 size=    1280kB time=00:01:19.31 bitrate= 132.2kbits/s speed=3.84x    frame= 2013 fps= 95 q=31.0 size=    1280kB time=00:01:20.36 bitrate= 130.5kbits/s speed= 3.8x    frame= 2043 fps= 94 q=31.0 size=    1280kB time=00:01:21.87 bitrate= 128.1kbits/s speed=3.78x    frame= 2070 fps= 93 q=31.0 size=    1280kB time=00:01:22.90 bitrate= 126.5kbits/s speed=3.74x    frame= 2100 fps= 93 q=31.0 size=    1280kB time=00:01:23.92 bitrate= 124.9kbits/s speed= 3.7x    frame= 2129 fps= 92 q=31.0 size=    1280kB time=00:01:24.94 bitrate= 123.4kbits/s speed=3.66x    frame= 2156 fps= 91 q=31.0 size=    1280kB time=00:01:25.99 bitrate= 121.9kbits/s speed=3.63x    frame= 2184 fps= 90 q=31.0 size=    1536kB time=00:01:27.50 bitrate= 143.8kbits/s speed=3.61x    frame= 2213 fps= 89 q=31.0 size=    1536kB time=00:01:28.53 bitrate= 142.1kbits/s speed=3.58x    frame= 2243 fps= 89 q=31.0 size=    1536kB time=00:01:29.55 bitrate= 140.5kbits/s speed=3.54x    frame= 2273 fps= 88 q=31.0 size=    1536kB time=00:01:30.58 bitrate= 138.9kbits/s speed=3.51x    frame= 2302 fps= 87 q=31.0 size=    1536kB time=00:01:32.11 bitrate= 136.6kbits/s speed= 3.5x    frame= 2331 fps= 87 q=31.0 size=    1536kB time=00:01:33.14 bitrate= 135.1kbits/s speed=3.47x    frame= 2359 fps= 86 q=31.0 size=    1536kB time=00:01:34.16 bitrate= 133.6kbits/s speed=3.45x    frame= 2388 fps= 86 q=31.0 size=    1792kB time=00:01:35.18 bitrate= 154.2kbits/s speed=3.42x    frame= 2418 fps= 85 q=31.0 size=    1792kB time=00:01:36.72 bitrate= 151.8kbits/s speed=3.41x    frame= 2449 fps= 85 q=31.0 size=    1792kB time=00:01:37.74 bitrate= 150.2kbits/s speed=3.39x    frame= 2479 fps= 84 q=31.0 size=    1792kB time=00:01:38.77 bitrate= 148.6kbits/s speed=3.36x    frame= 2507 fps= 84 q=31.0 size=    1792kB time=00:01:39.81 bitrate= 147.1kbits/s speed=3.34x    frame= 2533 fps= 83 q=31.0 size=    1792kB time=00:01:40.99 bitrate= 145.4kbits/s speed=3.32x    frame= 2559 fps= 83 q=31.0 size=    1792kB time=00:01:42.61 bitrate= 143.1kbits/s speed=3.32x    frame= 2588 fps= 82 q=31.0 size=    1792kB time=00:01:43.89 bitrate= 141.3kbits/s speed=3.31x    frame= 2616 fps= 82 q=31.0 size=    2048kB time=00:01:44.91 bitrate= 159.9kbits/s speed=3.29x    frame= 2642 fps= 81 q=31.0 size=    2048kB time=00:01:45.94 bitrate= 158.4kbits/s speed=3.27x    frame= 2685 fps= 82 q=31.0 size=    2048kB time=00:01:47.47 bitrate= 156.1kbits/s speed=3.26x    frame= 2731 fps= 82 q=31.0 size=    2048kB time=00:01:49.52 bitrate= 153.2kbits/s speed=3.28x    frame= 2778 fps= 82 q=31.0 size=    2048kB time=00:01:51.06 bitrate= 151.1kbits/s speed=3.27x    frame= 2826 fps= 82 q=31.0 size=    2048kB time=00:01:53.10 bitrate= 148.3kbits/s speed=3.28x    frame= 2878 fps= 82 q=31.0 size=    2048kB time=00:01:55.15 bitrate= 145.7kbits/s speed= 3.3x    frame= 2928 fps= 83 q=31.0 size=    2304kB time=00:01:57.20 bitrate= 161.0kbits/s speed=3.31x    frame= 2978 fps= 83 q=31.0 size=    2304kB time=00:01:59.25 bitrate= 158.3kbits/s speed=3.32x    frame= 3027 fps= 83 q=31.0 size=    2304kB time=00:02:00.78 bitrate= 156.3kbits/s speed=3.31x    frame= 3076 fps= 83 q=31.0 size=    2304kB time=00:02:02.83 bitrate= 153.7kbits/s speed=3.32x    frame= 3123 fps= 83 q=31.0 size=    2304kB time=00:02:04.88 bitrate= 151.1kbits/s speed=3.33x    frame= 3175 fps= 84 q=31.0 size=    2304kB time=00:02:06.93 bitrate= 148.7kbits/s speed=3.34x    frame= 3222 fps= 84 q=31.0 size=    2304kB time=00:02:08.93 bitrate= 146.4kbits/s speed=3.35x    frame= 3272 fps= 84 q=31.0 size=    2304kB time=00:02:10.51 bitrate= 144.6kbits/s speed=3.35x    frame= 3326 fps= 84 q=31.0 size=    2560kB time=00:02:12.56 bitrate= 158.2kbits/s speed=3.36x    frame= 3378 fps= 84 q=31.0 size=    2560kB time=00:02:14.61 bitrate= 155.8kbits/s speed=3.37x    frame= 3427 fps= 85 q=31.0 size=    2560kB time=00:02:17.17 bitrate= 152.9kbits/s speed=3.39x    frame= 3479 fps= 85 q=31.0 size=    2560kB time=00:02:19.22 bitrate= 150.6kbits/s speed= 3.4x    frame= 3529 fps= 85 q=31.0 size=    2560kB time=00:02:21.26 bitrate= 148.5kbits/s speed= 3.4x    frame= 3579 fps= 85 q=31.0 size=    2560kB time=00:02:23.31 bitrate= 146.3kbits/s speed=3.41x    frame= 3623 fps= 85 q=31.0 size=    2560kB time=00:02:24.85 bitrate= 144.8kbits/s speed=3.41x    frame= 3670 fps= 85 q=31.0 size=    2816kB time=00:02:26.90 bitrate= 157.0kbits/s speed=3.42x    frame= 3718 fps= 85 q=31.0 size=    2816kB time=00:02:28.94 bitrate= 154.9kbits/s speed=3.42x    frame= 3768 fps= 86 q=31.0 size=    2816kB time=00:02:30.50 bitrate= 153.3kbits/s speed=3.42x    frame= 3820 fps= 86 q=31.0 size=    2816kB time=00:02:32.53 bitrate= 151.2kbits/s speed=3.43x    frame= 3870 fps= 86 q=31.0 size=    2816kB time=00:02:34.58 bitrate= 149.2kbits/s speed=3.43x    frame= 3921 fps= 86 q=31.0 size=    2816kB time=00:02:36.62 bitrate= 147.3kbits/s speed=3.44x    frame= 3971 fps= 86 q=31.0 size=    2816kB time=00:02:38.67 bitrate= 145.4kbits/s speed=3.45x    frame= 4024 fps= 86 q=31.0 size=    2816kB time=00:02:40.72 bitrate= 143.5kbits/s speed=3.45x    frame= 4067 fps= 86 q=31.0 size=    3072kB time=00:02:42.56 bitrate= 154.8kbits/s speed=3.46x    frame= 4110 fps= 86 q=31.0 size=    3072kB time=00:02:44.30 bitrate= 153.2kbits/s speed=3.46x    frame= 4160 fps= 87 q=31.0 size=    3072kB time=00:02:46.35 bitrate= 151.3kbits/s speed=3.46x    frame= 4210 fps= 87 q=31.0 size=    3072kB time=00:02:47.91 bitrate= 149.9kbits/s speed=3.46x    frame= 4260 fps= 87 q=31.0 size=    3072kB time=00:02:50.45 bitrate= 147.6kbits/s speed=3.47x    frame= 4309 fps= 87 q=31.0 size=    3072kB time=00:02:52.50 bitrate= 145.9kbits/s speed=3.48x    frame= 4356 fps= 87 q=31.0 size=    3072kB time=00:02:54.54 bitrate= 144.2kbits/s speed=3.49x    frame= 4397 fps= 87 q=31.0 size=    3072kB time=00:02:56.08 bitrate= 142.9kbits/s speed=3.48x    frame= 4447 fps= 87 q=31.0 size=    3328kB time=00:02:58.13 bitrate= 153.1kbits/s speed=3.49x    frame= 4498 fps= 87 q=31.0 size=    3328kB time=00:03:00.18 bitrate= 151.3kbits/s speed=3.49x    frame= 4548 fps= 87 q=31.0 size=    3328kB time=00:03:02.12 bitrate= 149.7kbits/s speed= 3.5x    frame= 4598 fps= 87 q=31.0 size=    3328kB time=00:03:03.76 bitrate= 148.4kbits/s speed=3.49x    frame= 4647 fps= 88 q=31.0 size=    3328kB time=00:03:05.81 bitrate= 146.7kbits/s speed= 3.5x    frame= 4696 fps= 88 q=31.0 size=    3328kB time=00:03:07.86 bitrate= 145.1kbits/s speed= 3.5x    frame= 4748 fps= 88 q=31.0 size=    3328kB time=00:03:09.90 bitrate= 143.6kbits/s speed=3.51x    frame= 4795 fps= 88 q=31.0 size=    3584kB time=00:03:11.46 bitrate= 153.3kbits/s speed=3.51x    frame= 4851 fps= 88 q=31.0 size=    3584kB time=00:03:14.00 bitrate= 151.3kbits/s speed=3.52x    frame= 4903 fps= 88 q=31.0 size=    3584kB time=00:03:16.05 bitrate= 149.8kbits/s speed=3.52x    frame= 4956 fps= 88 q=31.0 size=    3584kB time=00:03:18.10 bitrate= 148.2kbits/s speed=3.53x    frame= 5007 fps= 88 q=31.0 size=    3584kB time=00:03:20.14 bitrate= 146.7kbits/s speed=3.53x    frame= 5055 fps= 88 q=31.0 size=    3584kB time=00:03:22.36 bitrate= 145.1kbits/s speed=3.54x    frame= 5104 fps= 89 q=31.0 size=    3584kB time=00:03:24.24 bitrate= 143.8kbits/s speed=3.54x    frame= 5158 fps= 89 q=31.0 size=    3840kB time=00:03:26.29 bitrate= 152.5kbits/s speed=3.55x    frame= 5205 fps= 89 q=31.0 size=    3840kB time=00:03:28.34 bitrate= 151.0kbits/s speed=3.55x    frame= 5257 fps= 89 q=31.0 size=    3840kB time=00:03:30.38 bitrate= 149.5kbits/s speed=3.56x    frame= 5306 fps= 89 q=31.0 size=    3840kB time=00:03:32.43 bitrate= 148.1kbits/s speed=3.56x    frame= 5364 fps= 89 q=31.0 size=    3840kB time=00:03:34.48 bitrate= 146.7kbits/s speed=3.56x    frame= 5419 fps= 89 q=31.0 size=    3840kB time=00:03:36.93 bitrate= 145.0kbits/s speed=3.58x    frame= 5476 fps= 90 q=31.0 size=    3840kB time=00:03:39.09 bitrate= 143.6kbits/s speed=3.58x    frame= 5526 fps= 90 q=31.0 size=    3840kB time=00:03:41.14 bitrate= 142.3kbits/s speed=3.59x    frame= 5581 fps= 90 q=31.0 size=    4096kB time=00:03:43.18 bitrate= 150.3kbits/s speed=3.59x    frame= 5627 fps= 90 q=31.0 size=    4096kB time=00:03:45.21 bitrate= 149.0kbits/s speed=3.59x    frame= 5687 fps= 90 q=31.0 size=    4096kB time=00:03:47.28 bitrate= 147.6kbits/s speed= 3.6x    frame= 5744 fps= 90 q=31.0 size=    4096kB time=00:03:49.35 bitrate= 146.3kbits/s speed= 3.6x    frame= 5793 fps= 90 q=31.0 size=    4096kB time=00:03:51.38 bitrate= 145.0kbits/s speed= 3.6x    frame= 5844 fps= 90 q=31.0 size=    4096kB time=00:03:53.42 bitrate= 143.7kbits/s speed=3.61x    frame= 5887 fps= 90 q=31.0 size=    4096kB time=00:03:55.56 bitrate= 142.4kbits/s speed=3.61x    frame= 5935 fps= 90 q=31.0 size=    4352kB time=00:03:57.52 bitrate= 150.1kbits/s speed=3.61x    frame= 5985 fps= 90 q=31.0 size=    4352kB time=00:03:59.57 bitrate= 148.8kbits/s speed=3.62x    frame= 6038 fps= 91 q=31.0 size=    4352kB time=00:04:01.62 bitrate= 147.6kbits/s speed=3.62x    frame= 6091 fps= 91 q=31.0 size=    4352kB time=00:04:03.66 bitrate= 146.3kbits/s speed=3.62x    frame= 6141 fps= 91 q=31.0 size=    4352kB time=00:04:05.71 bitrate= 145.1kbits/s speed=3.63x    frame= 6196 fps= 91 q=31.0 size=    4352kB time=00:04:07.76 bitrate= 143.9kbits/s speed=3.63x    frame= 6249 fps= 91 q=31.0 size=    4352kB time=00:04:09.81 bitrate= 142.7kbits/s speed=3.63x    frame= 6303 fps= 91 q=31.0 size=    4608kB time=00:04:12.07 bitrate= 149.8kbits/s speed=3.64x    frame= 6357 fps= 91 q=31.0 size=    4608kB time=00:04:14.42 bitrate= 148.4kbits/s speed=3.65x    frame= 6411 fps= 91 q=31.0 size=    4608kB time=00:04:16.46 bitrate= 147.2kbits/s speed=3.65x    frame= 6459 fps= 91 q=31.0 size=    4608kB time=00:04:18.00 bitrate= 146.3kbits/s speed=3.65x    frame= 6513 fps= 91 q=31.0 size=    4608kB time=00:04:20.56 bitrate= 144.9kbits/s speed=3.66x    frame= 6568 fps= 92 q=31.0 size=    4608kB time=00:04:22.61 bitrate= 143.7kbits/s speed=3.66x    frame= 6622 fps= 92 q=31.0 size=    4608kB time=00:04:24.66 bitrate= 142.6kbits/s speed=3.66x    frame= 6669 fps= 92 q=31.0 size=    4864kB time=00:04:26.70 bitrate= 149.4kbits/s speed=3.67x    frame= 6719 fps= 92 q=31.0 size=    4864kB time=00:04:28.75 bitrate= 148.3kbits/s speed=3.67x    frame= 6774 fps= 92 q=31.0 size=    4864kB time=00:04:31.31 bitrate= 146.9kbits/s speed=3.68x    frame= 6826 fps= 92 q=31.0 size=    4864kB time=00:04:33.36 bitrate= 145.8kbits/s speed=3.68x    frame= 6877 fps= 92 q=31.0 size=    4864kB time=00:04:35.41 bitrate= 144.7kbits/s speed=3.68x    frame= 6921 fps= 92 q=31.0 size=    4864kB time=00:04:36.94 bitrate= 143.9kbits/s speed=3.68x    frame= 6972 fps= 92 q=31.0 size=    4864kB time=00:04:38.99 bitrate= 142.8kbits/s speed=3.68x    frame= 7026 fps= 92 q=31.0 size=    4864kB time=00:04:41.04 bitrate= 141.8kbits/s speed=3.68x    frame= 7073 fps= 92 q=31.0 size=    5120kB time=00:04:43.09 bitrate= 148.2kbits/s speed=3.69x    frame= 7113 fps= 92 q=31.0 size=    5120kB time=00:04:44.62 bitrate= 147.4kbits/s speed=3.68x    frame= 7155 fps= 92 q=31.0 size=    5120kB time=00:04:46.16 bitrate= 146.6kbits/s speed=3.68x    frame= 7203 fps= 92 q=31.0 size=    5120kB time=00:04:48.21 bitrate= 145.5kbits/s speed=3.68x    frame= 7256 fps= 92 q=31.0 size=    5120kB time=00:04:50.26 bitrate= 144.5kbits/s speed=3.68x    frame= 7304 fps= 92 q=31.0 size=    5120kB time=00:04:51.96 bitrate= 143.7kbits/s speed=3.68x    frame= 7358 fps= 92 q=31.0 size=    5120kB time=00:04:54.35 bitrate= 142.5kbits/s speed=3.69x    frame= 7405 fps= 92 q=31.0 size=    5376kB time=00:04:55.89 bitrate= 148.8kbits/s speed=3.68x    frame= 7455 fps= 92 q=31.0 size=    5376kB time=00:04:57.94 bitrate= 147.8kbits/s speed=3.69x    frame= 7507 fps= 92 q=31.0 size=    5376kB time=00:04:59.98 bitrate= 146.8kbits/s speed=3.69x    frame= 7554 fps= 92 q=31.0 size=    5376kB time=00:05:02.54 bitrate= 145.6kbits/s speed= 3.7x    frame= 7603 fps= 92 q=31.0 size=    5376kB time=00:05:04.12 bitrate= 144.8kbits/s speed=3.69x    frame= 7655 fps= 92 q=31.0 size=    5376kB time=00:05:06.17 bitrate= 143.8kbits/s speed= 3.7x    frame= 7707 fps= 92 q=31.0 size=    5376kB time=00:05:08.20 bitrate= 142.9kbits/s speed= 3.7x    frame= 7759 fps= 93 q=31.0 size=    5376kB time=00:05:10.22 bitrate= 142.0kbits/s speed= 3.7x    frame= 7811 fps= 93 q=31.0 size=    5632kB time=00:05:12.51 bitrate= 147.6kbits/s speed= 3.7x    frame= 7863 fps= 93 q=31.0 size=    5632kB time=00:05:14.32 bitrate= 146.8kbits/s speed= 3.7x    frame= 7910 fps= 93 q=31.0 size=    5632kB time=00:05:16.37 bitrate= 145.8kbits/s speed=3.71x    frame= 7960 fps= 93 q=31.0 size=    5632kB time=00:05:18.42 bitrate= 144.9kbits/s speed=3.71x    frame= 8009 fps= 93 q=31.0 size=    5632kB time=00:05:20.46 bitrate= 144.0kbits/s speed=3.71x    frame= 8056 fps= 93 q=31.0 size=    5632kB time=00:05:22.00 bitrate= 143.3kbits/s speed=3.71x    frame= 8097 fps= 93 q=31.0 size=    5632kB time=00:05:23.71 bitrate= 142.5kbits/s speed= 3.7x    frame= 8135 fps= 93 q=31.0 size=    5888kB time=00:05:25.07 bitrate= 148.4kbits/s speed= 3.7x    frame= 8179 fps= 93 q=31.0 size=    5888kB time=00:05:27.12 bitrate= 147.5kbits/s speed= 3.7x    frame= 8225 fps= 93 q=31.0 size=    5888kB time=00:05:28.66 bitrate= 146.8kbits/s speed= 3.7x    frame= 8271 fps= 93 q=31.0 size=    5888kB time=00:05:30.70 bitrate= 145.9kbits/s speed= 3.7x    frame= 8322 fps= 93 q=31.0 size=    5888kB time=00:05:32.75 bitrate= 145.0kbits/s speed= 3.7x    frame= 8370 fps= 93 q=31.0 size=    5888kB time=00:05:34.29 bitrate= 144.3kbits/s speed= 3.7x    frame= 8418 fps= 93 q=31.0 size=    5888kB time=00:05:36.85 bitrate= 143.2kbits/s speed= 3.7x    frame= 8465 fps= 93 q=31.0 size=    5888kB time=00:05:38.90 bitrate= 142.3kbits/s speed=3.71x    frame= 8512 fps= 93 q=31.0 size=    6144kB time=00:05:40.43 bitrate= 147.8kbits/s speed= 3.7x    frame= 8559 fps= 93 q=31.0 size=    6144kB time=00:05:42.48 bitrate= 147.0kbits/s speed= 3.7x    frame= 8606 fps= 93 q=31.0 size=    6144kB time=00:05:44.53 bitrate= 146.1kbits/s speed=3.71x    frame= 8654 fps= 93 q=31.0 size=    6144kB time=00:05:46.06 bitrate= 145.4kbits/s speed= 3.7x    frame= 8700 fps= 93 q=31.0 size=    6144kB time=00:05:48.11 bitrate= 144.6kbits/s speed=3.71x    frame= 8749 fps= 93 q=31.0 size=    6144kB time=00:05:50.16 bitrate= 143.7kbits/s speed=3.71x    frame= 8796 fps= 93 q=31.0 size=    6144kB time=00:05:51.70 bitrate= 143.1kbits/s speed= 3.7x    frame= 8848 fps= 93 q=31.0 size=    6144kB time=00:05:53.74 bitrate= 142.3kbits/s speed=3.71x    frame= 8899 fps= 93 q=31.0 size=    6400kB time=00:05:55.79 bitrate= 147.4kbits/s speed=3.71x    frame= 8954 fps= 93 q=31.0 size=    6400kB time=00:05:57.84 bitrate= 146.5kbits/s speed=3.71x    frame= 9007 fps= 93 q=31.0 size=    6400kB time=00:06:00.04 bitrate= 145.6kbits/s speed=3.71x    frame= 9062 fps= 93 q=31.0 size=    6400kB time=00:06:02.45 bitrate= 144.7kbits/s speed=3.72x    frame= 9117 fps= 93 q=31.0 size=    6400kB time=00:06:04.50 bitrate= 143.8kbits/s speed=3.72x    frame= 9170 fps= 93 q=31.0 size=    6400kB time=00:06:06.54 bitrate= 143.0kbits/s speed=3.72x    frame= 9224 fps= 93 q=31.0 size=    6400kB time=00:06:09.10 bitrate= 142.0kbits/s speed=3.73x    frame= 9276 fps= 93 q=31.0 size=    6656kB time=00:06:11.15 bitrate= 146.9kbits/s speed=3.73x    frame= 9327 fps= 93 q=31.0 size=    6656kB time=00:06:13.20 bitrate= 146.1kbits/s speed=3.73x    frame= 9382 fps= 93 q=31.0 size=    6656kB time=00:06:15.25 bitrate= 145.3kbits/s speed=3.73x    frame= 9436 fps= 93 q=31.0 size=    6656kB time=00:06:17.32 bitrate= 144.5kbits/s speed=3.73x    frame= 9492 fps= 93 q=31.0 size=    6656kB time=00:06:19.86 bitrate= 143.5kbits/s speed=3.74x    frame= 9541 fps= 94 q=31.0 size=    6656kB time=00:06:21.90 bitrate= 142.8kbits/s speed=3.74x    frame= 9589 fps= 94 q=31.0 size=    6656kB time=00:06:23.44 bitrate= 142.2kbits/s speed=3.74x    frame= 9638 fps= 94 q=31.0 size=    6912kB time=00:06:25.49 bitrate= 146.9kbits/s speed=3.74x    frame= 9691 fps= 94 q=31.0 size=    6912kB time=00:06:27.54 bitrate= 146.1kbits/s speed=3.74x    frame= 9746 fps= 94 q=31.0 size=    6912kB time=00:06:29.58 bitrate= 145.3kbits/s speed=3.74x    frame= 9802 fps= 94 q=31.0 size=    6912kB time=00:06:32.14 bitrate= 144.4kbits/s speed=3.75x    frame= 9856 fps= 94 q=31.0 size=    6912kB time=00:06:34.19 bitrate= 143.6kbits/s speed=3.75x    frame= 9909 fps= 94 q=31.0 size=    6912kB time=00:06:36.24 bitrate= 142.9kbits/s speed=3.75x    frame= 9963 fps= 94 q=31.0 size=    7168kB time=00:06:38.29 bitrate= 147.4kbits/s speed=3.76x    frame=10014 fps= 94 q=31.0 size=    7168kB time=00:06:40.34 bitrate= 146.7kbits/s speed=3.76x    frame=10068 fps= 94 q=31.0 size=    7168kB time=00:06:42.90 bitrate= 145.7kbits/s speed=3.76x    frame=10121 fps= 94 q=31.0 size=    7168kB time=00:06:44.94 bitrate= 145.0kbits/s speed=3.76x    frame=10176 fps= 94 q=31.0 size=    7168kB time=00:06:46.99 bitrate= 144.3kbits/s speed=3.77x    frame=10229 fps= 94 q=31.0 size=    7168kB time=00:06:49.19 bitrate= 143.5kbits/s speed=3.77x    frame=10278 fps= 94 q=31.0 size=    7168kB time=00:06:51.09 bitrate= 142.8kbits/s speed=3.77x    frame=10319 fps= 94 q=31.0 size=    7424kB time=00:06:52.62 bitrate= 147.4kbits/s speed=3.77x    frame=10363 fps= 94 q=31.0 size=    7424kB time=00:06:54.67 bitrate= 146.7kbits/s speed=3.77x    frame=10414 fps= 94 q=31.0 size=    7424kB time=00:06:56.72 bitrate= 145.9kbits/s speed=3.77x    frame=10463 fps= 94 q=31.0 size=    7424kB time=00:06:58.73 bitrate= 145.2kbits/s speed=3.77x    frame=10515 fps= 94 q=31.0 size=    7424kB time=00:07:00.30 bitrate= 144.7kbits/s speed=3.77x    frame=10567 fps= 94 q=31.0 size=    7424kB time=00:07:02.35 bitrate= 144.0kbits/s speed=3.77x    frame=10619 fps= 94 q=31.0 size=    7424kB time=00:07:04.40 bitrate= 143.3kbits/s speed=3.77x    frame=10669 fps= 94 q=31.0 size=    7424kB time=00:07:06.45 bitrate= 142.6kbits/s speed=3.77x    frame=10719 fps= 94 q=31.0 size=    7680kB time=00:07:08.50 bitrate= 146.8kbits/s speed=3.77x    frame=10772 fps= 94 q=31.0 size=    7680kB time=00:07:10.54 bitrate= 146.1kbits/s speed=3.77x    frame=10823 fps= 94 q=31.0 size=    7680kB time=00:07:12.59 bitrate= 145.4kbits/s speed=3.77x    frame=10871 fps= 94 q=31.0 size=    7680kB time=00:07:15.15 bitrate= 144.6kbits/s speed=3.78x    frame=10924 fps= 94 q=31.0 size=    7680kB time=00:07:17.20 bitrate= 143.9kbits/s speed=3.78x    frame=10972 fps= 94 q=31.0 size=    7680kB time=00:07:19.25 bitrate= 143.2kbits/s speed=3.78x    frame=11024 fps= 94 q=31.0 size=    7680kB time=00:07:21.30 bitrate= 142.6kbits/s speed=3.78x    frame=11074 fps= 95 q=31.0 size=    7936kB time=00:07:22.85 bitrate= 146.8kbits/s speed=3.78x    frame=11124 fps= 95 q=31.0 size=    7936kB time=00:07:24.88 bitrate= 146.1kbits/s speed=3.78x    frame=11171 fps= 95 q=31.0 size=    7936kB time=00:07:26.93 bitrate= 145.5kbits/s speed=3.78x    frame=11217 fps= 95 q=31.0 size=    7936kB time=00:07:28.49 bitrate= 145.0kbits/s speed=3.78x    frame=11259 fps= 94 q=31.0 size=    7936kB time=00:07:30.51 bitrate= 144.3kbits/s speed=3.78x    frame=11303 fps= 94 q=31.0 size=    7936kB time=00:07:32.05 bitrate= 143.8kbits/s speed=3.78x    frame=11353 fps= 94 q=31.0 size=    7936kB time=00:07:34.10 bitrate= 143.2kbits/s speed=3.78x    frame=11402 fps= 94 q=31.0 size=    7936kB time=00:07:36.14 bitrate= 142.5kbits/s speed=3.78x    frame=11455 fps= 95 q=31.0 size=    8192kB time=00:07:38.19 bitrate= 146.5kbits/s speed=3.78x    frame=11503 fps= 95 q=31.0 size=    8192kB time=00:07:39.75 bitrate= 146.0kbits/s speed=3.78x    frame=11555 fps= 95 q=31.0 size=    8192kB time=00:07:41.78 bitrate= 145.3kbits/s speed=3.78x    frame=11607 fps= 95 q=31.0 size=    8192kB time=00:07:43.85 bitrate= 144.7kbits/s speed=3.78x    frame=11659 fps= 95 q=31.0 size=    8192kB time=00:07:45.87 bitrate= 144.0kbits/s speed=3.78x    frame=11707 fps= 95 q=31.0 size=    8192kB time=00:07:48.43 bitrate= 143.3kbits/s speed=3.79x    frame=11755 fps= 95 q=31.0 size=    8192kB time=00:07:50.48 bitrate= 142.6kbits/s speed=3.79x    frame=11802 fps= 95 q=31.0 size=    8448kB time=00:07:52.27 bitrate= 146.5kbits/s speed=3.79x    frame=11854 fps= 95 q=31.0 size=    8448kB time=00:07:54.36 bitrate= 145.9kbits/s speed=3.79x    frame=11906 fps= 95 q=31.0 size=    8448kB time=00:07:56.11 bitrate= 145.4kbits/s speed=3.79x    frame=11952 fps= 95 q=31.0 size=    8448kB time=00:07:58.16 bitrate= 144.7kbits/s speed=3.79x    frame=12002 fps= 95 q=31.0 size=    8448kB time=00:08:00.21 bitrate= 144.1kbits/s speed=3.79x    frame=12056 fps= 95 q=31.0 size=    8448kB time=00:08:02.26 bitrate= 143.5kbits/s speed=3.79x    frame=12111 fps= 95 q=31.0 size=    8448kB time=00:08:04.30 bitrate= 142.9kbits/s speed=3.79x    frame=12163 fps= 95 q=31.0 size=    8448kB time=00:08:06.35 bitrate= 142.3kbits/s speed=3.79x    frame=12215 fps= 95 q=31.0 size=    8704kB time=00:08:08.40 bitrate= 146.0kbits/s speed=3.79x    frame=12262 fps= 95 q=31.0 size=    8704kB time=00:08:10.45 bitrate= 145.4kbits/s speed=3.79x    frame=12308 fps= 95 q=31.0 size=    8704kB time=00:08:11.98 bitrate= 144.9kbits/s speed=3.79x    frame=12354 fps= 95 q=31.0 size=    8704kB time=00:08:14.03 bitrate= 144.3kbits/s speed=3.79x    frame=12403 fps= 95 q=31.0 size=    8704kB time=00:08:16.08 bitrate= 143.7kbits/s speed=3.79x    frame=12460 fps= 95 q=31.0 size=    8704kB time=00:08:18.13 bitrate= 143.1kbits/s speed=3.79x    frame=12513 fps= 95 q=31.0 size=    8704kB time=00:08:20.18 bitrate= 142.6kbits/s speed=3.79x    frame=12554 fps= 95 q=31.0 size=    8960kB time=00:08:22.22 bitrate= 146.1kbits/s speed= 3.8x    frame=12606 fps= 95 q=31.0 size=    8960kB time=00:08:24.27 bitrate= 145.6kbits/s speed= 3.8x    frame=12656 fps= 95 q=31.0 size=    8960kB time=00:08:26.32 bitrate= 145.0kbits/s speed= 3.8x    frame=12706 fps= 95 q=31.0 size=    8960kB time=00:08:28.37 bitrate= 144.4kbits/s speed= 3.8x    frame=12759 fps= 95 q=31.0 size=    8960kB time=00:08:30.42 bitrate= 143.8kbits/s speed= 3.8x    frame=12803 fps= 95 q=31.0 size=    8960kB time=00:08:32.17 bitrate= 143.3kbits/s speed= 3.8x    frame=12855 fps= 95 q=31.0 size=    8960kB time=00:08:34.47 bitrate= 142.7kbits/s speed= 3.8x    frame=12909 fps= 95 q=31.0 size=    9216kB time=00:08:36.56 bitrate= 146.2kbits/s speed= 3.8x    frame=12959 fps= 95 q=31.0 size=    9216kB time=00:08:38.10 bitrate= 145.7kbits/s speed= 3.8x    frame=13005 fps= 95 q=31.0 size=    9216kB time=00:08:40.14 bitrate= 145.1kbits/s speed= 3.8x    frame=13050 fps= 95 q=31.0 size=    9216kB time=00:08:41.70 bitrate= 144.7kbits/s speed= 3.8x    frame=13101 fps= 95 q=31.0 size=    9216kB time=00:08:43.73 bitrate= 144.2kbits/s speed= 3.8x    frame=13153 fps= 95 q=31.0 size=    9216kB time=00:08:45.78 bitrate= 143.6kbits/s speed= 3.8x    frame=13206 fps= 95 q=31.0 size=    9216kB time=00:08:48.02 bitrate= 143.0kbits/s speed= 3.8x    frame=13258 fps= 95 q=31.0 size=    9216kB time=00:08:50.02 bitrate= 142.4kbits/s speed= 3.8x    frame=13306 fps= 95 q=31.0 size=    9472kB time=00:08:51.92 bitrate= 145.9kbits/s speed= 3.8x    frame=13353 fps= 95 q=31.0 size=    9472kB time=00:08:53.97 bitrate= 145.3kbits/s speed= 3.8x    frame=13397 fps= 95 q=31.0 size=    9472kB time=00:08:56.02 bitrate= 144.8kbits/s speed=3.81x    frame=13446 fps= 95 q=31.0 size=    9472kB time=00:08:58.06 bitrate= 144.2kbits/s speed=3.81x    frame=13499 fps= 95 q=31.0 size=    9472kB time=00:09:00.11 bitrate= 143.7kbits/s speed=3.81x    frame=13553 fps= 95 q=31.0 size=    9472kB time=00:09:02.16 bitrate= 143.1kbits/s speed=3.81x    frame=13604 fps= 95 q=31.0 size=    9472kB time=00:09:04.21 bitrate= 142.6kbits/s speed=3.81x    frame=13658 fps= 95 q=31.0 size=    9728kB time=00:09:06.26 bitrate= 145.9kbits/s speed=3.81x    frame=13712 fps= 95 q=31.0 size=    9728kB time=00:09:08.30 bitrate= 145.3kbits/s speed=3.81x    frame=13765 fps= 95 q=31.0 size=    9728kB time=00:09:10.69 bitrate= 144.7kbits/s speed=3.81x    frame=13820 fps= 95 q=31.0 size=    9728kB time=00:09:12.91 bitrate= 144.1kbits/s speed=3.82x    frame=13874 fps= 95 q=31.0 size=    9728kB time=00:09:14.96 bitrate= 143.6kbits/s speed=3.82x    frame=13929 fps= 95 q=31.0 size=    9728kB time=00:09:17.01 bitrate= 143.1kbits/s speed=3.82x    frame=13982 fps= 95 q=31.0 size=    9728kB time=00:09:19.06 bitrate= 142.5kbits/s speed=3.82x    frame=14029 fps= 95 q=31.0 size=    9984kB time=00:09:21.10 bitrate= 145.8kbits/s speed=3.82x    frame=14084 fps= 96 q=31.0 size=    9984kB time=00:09:23.15 bitrate= 145.2kbits/s speed=3.82x    frame=14140 fps= 96 q=31.0 size=    9984kB time=00:09:25.20 bitrate= 144.7kbits/s speed=3.82x    frame=14190 fps= 96 q=31.0 size=    9984kB time=00:09:27.25 bitrate= 144.2kbits/s speed=3.82x    frame=14244 fps= 96 q=31.0 size=    9984kB time=00:09:29.81 bitrate= 143.5kbits/s speed=3.83x    frame=14296 fps= 96 q=31.0 size=    9984kB time=00:09:31.86 bitrate= 143.0kbits/s speed=3.83x    frame=14344 fps= 96 q=31.0 size=    9984kB time=00:09:33.90 bitrate= 142.5kbits/s speed=3.83x    frame=14386 fps= 96 q=31.0 size=   10240kB time=00:09:35.44 bitrate= 145.8kbits/s speed=3.82x    frame=14428 fps= 96 q=31.0 size=   10240kB time=00:09:37.32 bitrate= 145.3kbits/s speed=3.82x    frame=14476 fps= 96 q=31.0 size=   10240kB time=00:09:39.02 bitrate= 144.9kbits/s speed=3.82x    frame=14528 fps= 96 q=31.0 size=   10240kB time=00:09:41.07 bitrate= 144.4kbits/s speed=3.82x    frame=14578 fps= 96 q=31.0 size=   10240kB time=00:09:43.12 bitrate= 143.9kbits/s speed=3.82x    frame=14625 fps= 96 q=31.0 size=   10240kB time=00:09:45.17 bitrate= 143.4kbits/s speed=3.83x    frame=14675 fps= 96 q=31.0 size=   10240kB time=00:09:46.98 bitrate= 142.9kbits/s speed=3.82x    frame=14732 fps= 96 q=31.0 size=   10240kB time=00:09:49.26 bitrate= 142.4kbits/s speed=3.83x    frame=14780 fps= 96 q=31.0 size=   10496kB time=00:09:51.31 bitrate= 145.4kbits/s speed=3.83x    frame=14825 fps= 96 q=31.0 size=   10496kB time=00:09:52.85 bitrate= 145.0kbits/s speed=3.83x    frame=14876 fps= 96 q=31.0 size=   10496kB time=00:09:54.90 bitrate= 144.5kbits/s speed=3.83x    frame=14921 fps= 96 q=31.0 size=   10496kB time=00:09:56.43 bitrate= 144.2kbits/s speed=3.82x    frame=14963 fps= 96 q=31.0 size=   10496kB time=00:09:58.48 bitrate= 143.7kbits/s speed=3.82x    frame=15013 fps= 96 q=31.0 size=   10496kB time=00:10:00.04 bitrate= 143.3kbits/s speed=3.82x    frame=15061 fps= 96 q=31.0 size=   10496kB time=00:10:02.58 bitrate= 142.7kbits/s speed=3.83x    frame=15113 fps= 96 q=31.0 size=   10496kB time=00:10:04.62 bitrate= 142.2kbits/s speed=3.83x    frame=15169 fps= 96 q=31.0 size=   10752kB time=00:10:06.67 bitrate= 145.2kbits/s speed=3.83x    frame=15221 fps= 96 q=31.0 size=   10752kB time=00:10:08.74 bitrate= 144.7kbits/s speed=3.83x    frame=15273 fps= 96 q=31.0 size=   10752kB time=00:10:11.13 bitrate= 144.1kbits/s speed=3.83x    frame=15329 fps= 96 q=31.0 size=   10752kB time=00:10:13.33 bitrate= 143.6kbits/s speed=3.83x    frame=15384 fps= 96 q=31.0 size=   10752kB time=00:10:15.38 bitrate= 143.1kbits/s speed=3.83x    frame=15436 fps= 96 q=31.0 size=   10752kB time=00:10:17.42 bitrate= 142.7kbits/s speed=3.83x    frame=15491 fps= 96 q=31.0 size=   11008kB time=00:10:19.47 bitrate= 145.6kbits/s speed=3.83x    frame=15544 fps= 96 q=31.0 size=   11008kB time=00:10:21.52 bitrate= 145.1kbits/s speed=3.84x    frame=15592 fps= 96 q=31.0 size=   11008kB time=00:10:23.57 bitrate= 144.6kbits/s speed=3.84x    frame=15646 fps= 96 q=31.0 size=   11008kB time=00:10:25.62 bitrate= 144.1kbits/s speed=3.84x    frame=15698 fps= 96 q=31.0 size=   11008kB time=00:10:27.66 bitrate= 143.7kbits/s speed=3.84x    frame=15746 fps= 96 q=31.0 size=   11008kB time=00:10:29.71 bitrate= 143.2kbits/s speed=3.84x    frame=15799 fps= 96 q=31.0 size=   11008kB time=00:10:31.76 bitrate= 142.7kbits/s speed=3.84x    frame=15852 fps= 96 q=31.0 size=   11008kB time=00:10:33.81 bitrate= 142.3kbits/s speed=3.84x    frame=15898 fps= 96 q=31.0 size=   11264kB time=00:10:36.37 bitrate= 145.0kbits/s speed=3.84x    frame=15952 fps= 96 q=31.0 size=   11264kB time=00:10:38.42 bitrate= 144.5kbits/s speed=3.84x    frame=15996 fps= 96 q=31.0 size=   11264kB time=00:10:39.95 bitrate= 144.2kbits/s speed=3.84x    frame=16046 fps= 96 q=31.0 size=   11264kB time=00:10:42.00 bitrate= 143.7kbits/s speed=3.84x    frame=16103 fps= 96 q=31.0 size=   11264kB time=00:10:44.05 bitrate= 143.3kbits/s speed=3.84x    frame=16157 fps= 96 q=31.0 size=   11264kB time=00:10:46.12 bitrate= 142.8kbits/s speed=3.84x    frame=16208 fps= 96 q=31.0 size=   11264kB time=00:10:48.14 bitrate= 142.4kbits/s speed=3.84x    frame=16260 fps= 96 q=31.0 size=   11520kB time=00:10:50.19 bitrate= 145.1kbits/s speed=3.84x    frame=16307 fps= 96 q=31.0 size=   11520kB time=00:10:52.24 bitrate= 144.7kbits/s speed=3.85x    frame=16361 fps= 96 q=31.0 size=   11520kB time=00:10:54.29 bitrate= 144.2kbits/s speed=3.85x    frame=16410 fps= 96 q=31.0 size=   11520kB time=00:10:56.34 bitrate= 143.8kbits/s speed=3.85x    frame=16457 fps= 96 q=31.0 size=   11520kB time=00:10:58.38 bitrate= 143.3kbits/s speed=3.85x    frame=16502 fps= 96 q=31.0 size=   11520kB time=00:10:59.92 bitrate= 143.0kbits/s speed=3.84x    frame=16550 fps= 96 q=31.0 size=   11520kB time=00:11:01.97 bitrate= 142.6kbits/s speed=3.85x    frame=16598 fps= 96 q=31.0 size=   11776kB time=00:11:03.50 bitrate= 145.4kbits/s speed=3.84x    frame=16650 fps= 96 q=31.0 size=   11776kB time=00:11:05.55 bitrate= 144.9kbits/s speed=3.84x    frame=16699 fps= 96 q=31.0 size=   11776kB time=00:11:08.11 bitrate= 144.4kbits/s speed=3.85x    frame=16750 fps= 96 q=31.0 size=   11776kB time=00:11:10.16 bitrate= 143.9kbits/s speed=3.85x    frame=16800 fps= 96 q=31.0 size=   11776kB time=00:11:12.21 bitrate= 143.5kbits/s speed=3.85x    frame=16851 fps= 96 q=31.0 size=   11776kB time=00:11:14.26 bitrate= 143.1kbits/s speed=3.85x    frame=16898 fps= 96 q=31.0 size=   11776kB time=00:11:15.79 bitrate= 142.7kbits/s speed=3.85x    frame=16949 fps= 96 q=31.0 size=   11776kB time=00:11:17.84 bitrate= 142.3kbits/s speed=3.85x    frame=16998 fps= 96 q=31.0 size=   12032kB time=00:11:19.89 bitrate= 145.0kbits/s speed=3.85x    frame=17048 fps= 96 q=31.0 size=   12032kB time=00:11:21.94 bitrate= 144.5kbits/s speed=3.85x    frame=17093 fps= 96 q=31.0 size=   12032kB time=00:11:23.94 bitrate= 144.1kbits/s speed=3.85x    frame=17139 fps= 96 q=31.0 size=   12032kB time=00:11:25.52 bitrate= 143.8kbits/s speed=3.85x    frame=17188 fps= 96 q=31.0 size=   12032kB time=00:11:27.57 bitrate= 143.4kbits/s speed=3.85x    frame=17239 fps= 96 q=31.0 size=   12032kB time=00:11:29.62 bitrate= 142.9kbits/s speed=3.85x    frame=17288 fps= 96 q=31.0 size=   12032kB time=00:11:31.24 bitrate= 142.6kbits/s speed=3.85x    frame=17335 fps= 96 q=31.0 size=   12288kB time=00:11:33.20 bitrate= 145.2kbits/s speed=3.85x    frame=17386 fps= 96 q=31.0 size=   12288kB time=00:11:35.25 bitrate= 144.8kbits/s speed=3.85x    frame=17428 fps= 96 q=31.0 size=   12288kB time=00:11:36.78 bitrate= 144.5kbits/s speed=3.85x    frame=17478 fps= 96 q=31.0 size=   12288kB time=00:11:38.83 bitrate= 144.0kbits/s speed=3.85x    frame=17524 fps= 96 q=31.0 size=   12288kB time=00:11:41.39 bitrate= 143.5kbits/s speed=3.85x    frame=17574 fps= 96 q=31.0 size=   12288kB time=00:11:42.95 bitrate= 143.2kbits/s speed=3.85x    frame=17626 fps= 96 q=31.0 size=   12288kB time=00:11:45.00 bitrate= 142.8kbits/s speed=3.85x    frame=17678 fps= 96 q=31.0 size=   12288kB time=00:11:47.05 bitrate= 142.4kbits/s speed=3.85x    frame=17729 fps= 96 q=31.0 size=   12544kB time=00:11:49.07 bitrate= 144.9kbits/s speed=3.85x    frame=17775 fps= 96 q=31.0 size=   12544kB time=00:11:51.12 bitrate= 144.5kbits/s speed=3.85x    frame=17821 fps= 96 q=31.0 size=   12544kB time=00:11:52.74 bitrate= 144.2kbits/s speed=3.85x    frame=17870 fps= 96 q=31.0 size=   12544kB time=00:11:54.70 bitrate= 143.8kbits/s speed=3.85x    frame=17924 fps= 96 q=31.0 size=   12544kB time=00:11:56.75 bitrate= 143.4kbits/s speed=3.85x    frame=17977 fps= 96 q=31.0 size=   12544kB time=00:11:58.99 bitrate= 142.9kbits/s speed=3.85x    frame=18033 fps= 96 q=31.0 size=   12544kB time=00:12:01.36 bitrate= 142.5kbits/s speed=3.85x    frame=18088 fps= 96 q=31.0 size=   12800kB time=00:12:03.41 bitrate= 144.9kbits/s speed=3.85x    frame=18136 fps= 96 q=31.0 size=   12800kB time=00:12:05.46 bitrate= 144.5kbits/s speed=3.85x    frame=18184 fps= 96 q=31.0 size=   12800kB time=00:12:06.99 bitrate= 144.2kbits/s speed=3.85x    frame=18236 fps= 96 q=31.0 size=   12800kB time=00:12:09.04 bitrate= 143.8kbits/s speed=3.85x    frame=18288 fps= 96 q=31.0 size=   12800kB time=00:12:11.09 bitrate= 143.4kbits/s speed=3.85x    frame=18341 fps= 96 q=31.0 size=   12800kB time=00:12:13.16 bitrate= 143.0kbits/s speed=3.85x    frame=18393 fps= 96 q=31.0 size=   12800kB time=00:12:15.70 bitrate= 142.5kbits/s speed=3.86x    frame=18445 fps= 96 q=31.0 size=   13056kB time=00:12:17.79 bitrate= 145.0kbits/s speed=3.86x    frame=18499 fps= 96 q=31.0 size=   13056kB time=00:12:20.30 bitrate= 144.5kbits/s speed=3.86x    frame=18549 fps= 96 q=31.0 size=   13056kB time=00:12:21.84 bitrate= 144.2kbits/s speed=3.86x    frame=18599 fps= 96 q=31.0 size=   13056kB time=00:12:23.89 bitrate= 143.8kbits/s speed=3.86x    frame=18644 fps= 96 q=31.0 size=   13056kB time=00:12:25.94 bitrate= 143.4kbits/s speed=3.86x    frame=18692 fps= 96 q=31.0 size=   13056kB time=00:12:27.49 bitrate= 143.1kbits/s speed=3.86x    frame=18744 fps= 96 q=31.0 size=   13056kB time=00:12:29.54 bitrate= 142.7kbits/s speed=3.86x    frame=18795 fps= 96 q=31.0 size=   13312kB time=00:12:31.57 bitrate= 145.1kbits/s speed=3.86x    frame=18845 fps= 96 q=31.0 size=   13312kB time=00:12:33.62 bitrate= 144.7kbits/s speed=3.86x    frame=18896 fps= 96 q=31.0 size=   13312kB time=00:12:35.66 bitrate= 144.3kbits/s speed=3.86x    frame=18947 fps= 96 q=31.0 size=   13312kB time=00:12:37.71 bitrate= 143.9kbits/s speed=3.86x    frame=18998 fps= 97 q=31.0 size=   13312kB time=00:12:39.76 bitrate= 143.5kbits/s speed=3.86x    frame=19043 fps= 96 q=31.0 size=   13312kB time=00:12:41.32 bitrate= 143.2kbits/s speed=3.86x    frame=19093 fps= 96 q=31.0 size=   13312kB time=00:12:43.34 bitrate= 142.9kbits/s speed=3.86x    frame=19146 fps= 97 q=31.0 size=   13568kB time=00:12:45.39 bitrate= 145.2kbits/s speed=3.86x    frame=19194 fps= 97 q=31.0 size=   13568kB time=00:12:47.95 bitrate= 144.7kbits/s speed=3.86x    frame=19246 fps= 97 q=31.0 size=   13568kB time=00:12:50.00 bitrate= 144.3kbits/s speed=3.86x    frame=19292 fps= 97 q=31.0 size=   13568kB time=00:12:52.05 bitrate= 144.0kbits/s speed=3.86x    frame=19341 fps= 97 q=31.0 size=   13568kB time=00:12:53.58 bitrate= 143.7kbits/s speed=3.86x    frame=19393 fps= 97 q=31.0 size=   13568kB time=00:12:55.63 bitrate= 143.3kbits/s speed=3.86x    frame=19445 fps= 97 q=31.0 size=   13568kB time=00:12:57.68 bitrate= 142.9kbits/s speed=3.86x    frame=19498 fps= 97 q=31.0 size=   13568kB time=00:12:59.73 bitrate= 142.5kbits/s speed=3.86x    frame=19550 fps= 97 q=31.0 size=   13824kB time=00:13:01.80 bitrate= 144.9kbits/s speed=3.86x    frame=19602 fps= 97 q=31.0 size=   13824kB time=00:13:03.82 bitrate= 144.5kbits/s speed=3.86x    frame=19652 fps= 97 q=31.0 size=   13824kB time=00:13:05.87 bitrate= 144.1kbits/s speed=3.86x    frame=19705 fps= 97 q=31.0 size=   13824kB time=00:13:07.92 bitrate= 143.7kbits/s speed=3.86x    frame=19758 fps= 97 q=31.0 size=   13824kB time=00:13:09.97 bitrate= 143.4kbits/s speed=3.86x    frame=19810 fps= 97 q=31.0 size=   13824kB time=00:13:12.38 bitrate= 142.9kbits/s speed=3.87x    frame=19858 fps= 97 q=31.0 size=   13824kB time=00:13:14.06 bitrate= 142.6kbits/s speed=3.87x    frame=19908 fps= 97 q=31.0 size=   14080kB time=00:13:16.11 bitrate= 144.9kbits/s speed=3.87x    frame=19958 fps= 97 q=31.0 size=   14080kB time=00:13:18.16 bitrate= 144.5kbits/s speed=3.87x    frame=20009 fps= 97 q=31.0 size=   14080kB time=00:13:20.21 bitrate= 144.1kbits/s speed=3.87x    frame=20064 fps= 97 q=31.0 size=   14080kB time=00:13:22.77 bitrate= 143.7kbits/s speed=3.87x    frame=20118 fps= 97 q=31.0 size=   14080kB time=00:13:24.82 bitrate= 143.3kbits/s speed=3.87x    frame=20171 fps= 97 q=31.0 size=   14080kB time=00:13:26.86 bitrate= 143.0kbits/s speed=3.87x    frame=20222 fps= 97 q=31.0 size=   14080kB time=00:13:28.91 bitrate= 142.6kbits/s speed=3.87x    frame=20276 fps= 97 q=31.0 size=   14336kB time=00:13:30.96 bitrate= 144.8kbits/s speed=3.87x    frame=20316 fps= 97 q=31.0 size=   14336kB time=00:13:32.50 bitrate= 144.5kbits/s speed=3.87x    frame=20360 fps= 97 q=31.0 size=   14336kB time=00:13:34.54 bitrate= 144.2kbits/s speed=3.87x    frame=20408 fps= 97 q=31.0 size=   14336kB time=00:13:36.46 bitrate= 143.8kbits/s speed=3.87x    frame=20455 fps= 97 q=31.0 size=   14336kB time=00:13:38.13 bitrate= 143.5kbits/s speed=3.87x    frame=20508 fps= 97 q=31.0 size=   14336kB time=00:13:40.18 bitrate= 143.2kbits/s speed=3.87x    frame=20560 fps= 97 q=31.0 size=   14336kB time=00:13:42.22 bitrate= 142.8kbits/s speed=3.87x    frame=20611 fps= 97 q=31.0 size=   14592kB time=00:13:44.27 bitrate= 145.0kbits/s speed=3.87x    frame=20660 fps= 97 q=31.0 size=   14592kB time=00:13:46.32 bitrate= 144.7kbits/s speed=3.87x    frame=20697 fps= 97 q=31.0 size=   14592kB time=00:13:47.86 bitrate= 144.4kbits/s speed=3.87x    frame=20746 fps= 97 q=31.0 size=   14592kB time=00:13:49.39 bitrate= 144.1kbits/s speed=3.87x    frame=20794 fps= 97 q=31.0 size=   14592kB time=00:13:51.44 bitrate= 143.8kbits/s speed=3.87x    frame=20844 fps= 97 q=31.0 size=   14592kB time=00:13:53.49 bitrate= 143.4kbits/s speed=3.87x    frame=20889 fps= 97 q=31.0 size=   14592kB time=00:13:55.60 bitrate= 143.1kbits/s speed=3.87x    frame=20936 fps= 97 q=31.0 size=   14592kB time=00:13:57.58 bitrate= 142.7kbits/s speed=3.87x    frame=20988 fps= 97 q=31.0 size=   14848kB time=00:13:59.63 bitrate= 144.9kbits/s speed=3.87x    frame=21041 fps= 97 q=31.0 size=   14848kB time=00:14:01.68 bitrate= 144.5kbits/s speed=3.87x    frame=21089 fps= 97 q=31.0 size=   14848kB time=00:14:03.73 bitrate= 144.2kbits/s speed=3.87x    frame=21139 fps= 97 q=31.0 size=   14848kB time=00:14:05.78 bitrate= 143.8kbits/s speed=3.87x    frame=21190 fps= 97 q=31.0 size=   14848kB time=00:14:07.82 bitrate= 143.5kbits/s speed=3.87x    frame=21240 fps= 97 q=31.0 size=   14848kB time=00:14:09.51 bitrate= 143.2kbits/s speed=3.87x    frame=21288 fps= 97 q=31.0 size=   14848kB time=00:14:11.41 bitrate= 142.9kbits/s speed=3.87x    frame=21336 fps= 97 q=31.0 size=   14848kB time=00:14:13.46 bitrate= 142.5kbits/s speed=3.87x    frame=21383 fps= 97 q=31.0 size=   15104kB time=00:14:14.99 bitrate= 144.7kbits/s speed=3.87x    frame=21435 fps= 97 q=31.0 size=   15104kB time=00:14:17.06 bitrate= 144.4kbits/s speed=3.87x    frame=21487 fps= 97 q=31.0 size=   15104kB time=00:14:19.39 bitrate= 144.0kbits/s speed=3.87x    frame=21539 fps= 97 q=31.0 size=   15104kB time=00:14:21.14 bitrate= 143.7kbits/s speed=3.87x    frame=21591 fps= 97 q=31.0 size=   15104kB time=00:14:23.18 bitrate= 143.3kbits/s speed=3.87x    frame=21640 fps= 97 q=31.0 size=   15104kB time=00:14:25.23 bitrate= 143.0kbits/s speed=3.87x    frame=21682 fps= 97 q=31.0 size=   15104kB time=00:14:27.24 bitrate= 142.7kbits/s speed=3.87x    frame=21730 fps= 97 q=31.0 size=   15360kB time=00:14:29.33 bitrate= 144.7kbits/s speed=3.87x    frame=21779 fps= 97 q=31.0 size=   15360kB time=00:14:31.38 bitrate= 144.4kbits/s speed=3.87x    frame=21827 fps= 97 q=31.0 size=   15360kB time=00:14:33.42 bitrate= 144.1kbits/s speed=3.87x    frame=21882 fps= 97 q=31.0 size=   15360kB time=00:14:35.47 bitrate= 143.7kbits/s speed=3.87x    frame=21929 fps= 97 q=31.0 size=   15360kB time=00:14:37.01 bitrate= 143.5kbits/s speed=3.87x    frame=21980 fps= 97 q=31.0 size=   15360kB time=00:14:39.06 bitrate= 143.1kbits/s speed=3.87x    frame=22019 fps= 97 q=31.0 size=   15360kB time=00:14:40.59 bitrate= 142.9kbits/s speed=3.87x    frame=22064 fps= 97 q=31.0 size=   15360kB time=00:14:42.64 bitrate= 142.6kbits/s speed=3.87x    frame=22111 fps= 97 q=31.0 size=   15616kB time=00:14:44.20 bitrate= 144.7kbits/s speed=3.87x    frame=22161 fps= 97 q=31.0 size=   15616kB time=00:14:46.22 bitrate= 144.3kbits/s speed=3.87x    frame=22208 fps= 97 q=31.0 size=   15616kB time=00:14:48.27 bitrate= 144.0kbits/s speed=3.87x    frame=22257 fps= 97 q=31.0 size=   15616kB time=00:14:50.32 bitrate= 143.7kbits/s speed=3.87x    frame=22299 fps= 97 q=31.0 size=   15616kB time=00:14:51.86 bitrate= 143.4kbits/s speed=3.87x    frame=22347 fps= 97 q=31.0 size=   15616kB time=00:14:53.90 bitrate= 143.1kbits/s speed=3.87x    frame=22397 fps= 97 q=31.0 size=   15616kB time=00:14:55.46 bitrate= 142.9kbits/s speed=3.87x    frame=22449 fps= 97 q=31.0 size=   15616kB time=00:14:57.55 bitrate= 142.5kbits/s speed=3.87x    frame=22501 fps= 97 q=31.0 size=   15872kB time=00:14:59.54 bitrate= 144.5kbits/s speed=3.87x    frame=22552 fps= 97 q=31.0 size=   15872kB time=00:15:02.10 bitrate= 144.1kbits/s speed=3.87x    frame=22605 fps= 97 q=31.0 size=   15872kB time=00:15:04.14 bitrate= 143.8kbits/s speed=3.87x    frame=22656 fps= 97 q=31.0 size=   15872kB time=00:15:06.19 bitrate= 143.5kbits/s speed=3.87x    frame=22707 fps= 97 q=31.0 size=   15872kB time=00:15:08.24 bitrate= 143.2kbits/s speed=3.87x    frame=22756 fps= 97 q=31.0 size=   15872kB time=00:15:10.29 bitrate= 142.8kbits/s speed=3.87x    frame=22800 fps= 97 q=31.0 size=   15872kB time=00:15:12.00 bitrate= 142.6kbits/s speed=3.87x    frame=22851 fps= 97 q=31.0 size=   16128kB time=00:15:13.87 bitrate= 144.6kbits/s speed=3.87x    frame=22891 fps= 97 q=31.0 size=   16128kB time=00:15:15.66 bitrate= 144.3kbits/s speed=3.87x    frame=22937 fps= 97 q=31.0 size=   16128kB time=00:15:17.46 bitrate= 144.0kbits/s speed=3.87x    frame=22988 fps= 97 q=31.0 size=   16128kB time=00:15:19.50 bitrate= 143.7kbits/s speed=3.87x    frame=23037 fps= 97 q=31.0 size=   16128kB time=00:15:21.55 bitrate= 143.4kbits/s speed=3.87x    frame=23091 fps= 97 q=31.0 size=   16128kB time=00:15:23.60 bitrate= 143.0kbits/s speed=3.87x    frame=23143 fps= 97 q=31.0 size=   16128kB time=00:15:25.65 bitrate= 142.7kbits/s speed=3.87x    frame=23190 fps= 97 q=31.0 size=   16128kB time=00:15:27.25 bitrate= 142.5kbits/s speed=3.87x    frame=23242 fps= 97 q=31.0 size=   16384kB time=00:15:29.47 bitrate= 144.4kbits/s speed=3.87x    frame=23294 fps= 97 q=31.0 size=   16384kB time=00:15:31.28 bitrate= 144.1kbits/s speed=3.87x    frame=23343 fps= 97 q=31.0 size=   16384kB time=00:15:33.33 bitrate= 143.8kbits/s speed=3.87x    frame=23392 fps= 97 q=31.0 size=   16384kB time=00:15:35.89 bitrate= 143.4kbits/s speed=3.87x    frame=23444 fps= 97 q=31.0 size=   16384kB time=00:15:37.94 bitrate= 143.1kbits/s speed=3.87x    frame=23495 fps= 97 q=31.0 size=   16384kB time=00:15:39.98 bitrate= 142.8kbits/s speed=3.87x    frame=23545 fps= 97 q=31.0 size=   16384kB time=00:15:42.03 bitrate= 142.5kbits/s speed=3.87x    frame=23595 fps= 97 q=31.0 size=   16640kB time=00:15:44.08 bitrate= 144.4kbits/s speed=3.87x    frame=23645 fps= 97 q=31.0 size=   16640kB time=00:15:46.06 bitrate= 144.1kbits/s speed=3.87x    frame=23695 fps= 97 q=31.0 size=   16640kB time=00:15:47.66 bitrate= 143.8kbits/s speed=3.87x    frame=23739 fps= 97 q=31.0 size=   16640kB time=00:15:49.71 bitrate= 143.5kbits/s speed=3.87x    frame=23788 fps= 97 q=31.0 size=   16640kB time=00:15:51.27 bitrate= 143.3kbits/s speed=3.87x    frame=23840 fps= 97 q=31.0 size=   16640kB time=00:15:53.32 bitrate= 143.0kbits/s speed=3.87x    frame=23888 fps= 97 q=31.0 size=   16640kB time=00:15:55.34 bitrate= 142.7kbits/s speed=3.87x    frame=23939 fps= 97 q=31.0 size=   16640kB time=00:15:57.39 bitrate= 142.4kbits/s speed=3.87x    frame=23987 fps= 97 q=31.0 size=   16896kB time=00:15:59.44 bitrate= 144.3kbits/s speed=3.87x    frame=24039 fps= 97 q=31.0 size=   16896kB time=00:16:01.49 bitrate= 144.0kbits/s speed=3.87x    frame=24092 fps= 97 q=31.0 size=   16896kB time=00:16:03.54 bitrate= 143.6kbits/s speed=3.87x    frame=24145 fps= 97 q=31.0 size=   16896kB time=00:16:05.58 bitrate= 143.3kbits/s speed=3.87x    frame=24195 fps= 97 q=31.0 size=   16896kB time=00:16:08.14 bitrate= 143.0kbits/s speed=3.88x    frame=24243 fps= 97 q=31.0 size=   16896kB time=00:16:10.15 bitrate= 142.7kbits/s speed=3.88x    frame=24297 fps= 97 q=31.0 size=   16896kB time=00:16:12.24 bitrate= 142.4kbits/s speed=3.88x    frame=24347 fps= 97 q=31.0 size=   17152kB time=00:16:13.80 bitrate= 144.3kbits/s speed=3.88x    frame=24399 fps= 97 q=31.0 size=   17152kB time=00:16:15.82 bitrate= 144.0kbits/s speed=3.88x    frame=24450 fps= 97 q=31.0 size=   17152kB time=00:16:17.87 bitrate= 143.7kbits/s speed=3.88x    frame=24503 fps= 97 q=31.0 size=   17152kB time=00:16:19.92 bitrate= 143.4kbits/s speed=3.88x    frame=24553 fps= 97 q=31.0 size=   17152kB time=00:16:21.97 bitrate= 143.1kbits/s speed=3.88x    frame=24602 fps= 97 q=31.0 size=   17152kB time=00:16:24.02 bitrate= 142.8kbits/s speed=3.88x    frame=24652 fps= 97 q=31.0 size=   17152kB time=00:16:26.06 bitrate= 142.5kbits/s speed=3.88x    frame=24704 fps= 97 q=31.0 size=   17152kB time=00:16:28.11 bitrate= 142.2kbits/s speed=3.88x    frame=24753 fps= 97 q=31.0 size=   17408kB time=00:16:30.16 bitrate= 144.0kbits/s speed=3.88x    frame=24801 fps= 97 q=31.0 size=   17408kB time=00:16:31.70 bitrate= 143.8kbits/s speed=3.88x    frame=24843 fps= 97 q=31.0 size=   17408kB time=00:16:33.74 bitrate= 143.5kbits/s speed=3.88x    frame=24895 fps= 97 q=31.0 size=   17408kB time=00:16:35.79 bitrate= 143.2kbits/s speed=3.88x    frame=24945 fps= 97 q=31.0 size=   17408kB time=00:16:37.78 bitrate= 142.9kbits/s speed=3.88x    frame=24996 fps= 97 q=31.0 size=   17408kB time=00:16:39.38 bitrate= 142.7kbits/s speed=3.88x    frame=25042 fps= 97 q=31.0 size=   17408kB time=00:16:41.94 bitrate= 142.3kbits/s speed=3.88x    frame=25090 fps= 97 q=31.0 size=   17408kB time=00:16:43.98 bitrate= 142.0kbits/s speed=3.88x    frame=25142 fps= 97 q=31.0 size=   17664kB time=00:16:46.03 bitrate= 143.8kbits/s speed=3.88x    frame=25192 fps= 97 q=31.0 size=   17664kB time=00:16:47.85 bitrate= 143.6kbits/s speed=3.88x    frame=25236 fps= 97 q=31.0 size=   17664kB time=00:16:49.62 bitrate= 143.3kbits/s speed=3.88x    frame=25289 fps= 97 q=31.0 size=   17664kB time=00:16:51.66 bitrate= 143.0kbits/s speed=3.88x    frame=25341 fps= 97 q=31.0 size=   17664kB time=00:16:53.71 bitrate= 142.7kbits/s speed=3.88x    frame=25390 fps= 97 q=31.0 size=   17664kB time=00:16:55.76 bitrate= 142.5kbits/s speed=3.88x    frame=25439 fps= 97 q=31.0 size=   17664kB time=00:16:57.45 bitrate= 142.2kbits/s speed=3.88x    frame=25491 fps= 97 q=31.0 size=   17920kB time=00:16:59.34 bitrate= 144.0kbits/s speed=3.88x    frame=25543 fps= 97 q=31.0 size=   17920kB time=00:17:01.84 bitrate= 143.7kbits/s speed=3.88x    frame=25600 fps= 97 q=31.0 size=   17920kB time=00:17:03.95 bitrate= 143.4kbits/s speed=3.88x    frame=25652 fps= 97 q=31.0 size=   17920kB time=00:17:06.00 bitrate= 143.1kbits/s speed=3.88x    frame=25705 fps= 97 q=31.0 size=   17920kB time=00:17:08.05 bitrate= 142.8kbits/s speed=3.88x    frame=25751 fps= 97 q=31.0 size=   17920kB time=00:17:09.97 bitrate= 142.5kbits/s speed=3.88x    frame=25801 fps= 97 q=31.0 size=   17920kB time=00:17:11.63 bitrate= 142.3kbits/s speed=3.88x    frame=25845 fps= 97 q=31.0 size=   17920kB time=00:17:14.19 bitrate= 141.9kbits/s speed=3.88x    frame=25899 fps= 97 q=31.0 size=   18176kB time=00:17:16.24 bitrate= 143.7kbits/s speed=3.88x    frame=25948 fps= 97 q=31.0 size=   18176kB time=00:17:18.29 bitrate= 143.4kbits/s speed=3.88x    frame=26004 fps= 97 q=31.0 size=   18176kB time=00:17:20.34 bitrate= 143.1kbits/s speed=3.88x    frame=26054 fps= 97 q=31.0 size=   18176kB time=00:17:22.38 bitrate= 142.8kbits/s speed=3.88x    frame=26107 fps= 97 q=31.0 size=   18176kB time=00:17:24.43 bitrate= 142.6kbits/s speed=3.88x    frame=26156 fps= 97 q=31.0 size=   18176kB time=00:17:26.48 bitrate= 142.3kbits/s speed=3.88x    frame=26206 fps= 97 q=31.0 size=   18176kB time=00:17:28.02 bitrate= 142.1kbits/s speed=3.88x    frame=26254 fps= 97 q=31.0 size=   18432kB time=00:17:30.06 bitrate= 143.8kbits/s speed=3.88x    frame=26306 fps= 97 q=31.0 size=   18432kB time=00:17:32.11 bitrate= 143.5kbits/s speed=3.88x    frame=26355 fps= 97 q=31.0 size=   18432kB time=00:17:34.16 bitrate= 143.2kbits/s speed=3.88x    frame=26409 fps= 97 q=31.0 size=   18432kB time=00:17:36.21 bitrate= 143.0kbits/s speed=3.88x    frame=26461 fps= 97 q=31.0 size=   18432kB time=00:17:38.26 bitrate= 142.7kbits/s speed=3.88x    frame=26515 fps= 97 q=31.0 size=   18432kB time=00:17:40.30 bitrate= 142.4kbits/s speed=3.88x    frame=26569 fps= 97 q=31.0 size=   18432kB time=00:17:42.35 bitrate= 142.1kbits/s speed=3.89x    frame=26619 fps= 97 q=31.0 size=   18688kB time=00:17:44.40 bitrate= 143.8kbits/s speed=3.89x    frame=26672 fps= 97 q=31.0 size=   18688kB time=00:17:46.45 bitrate= 143.6kbits/s speed=3.89x    frame=26718 fps= 97 q=31.0 size=   18688kB time=00:17:49.01 bitrate= 143.2kbits/s speed=3.89x    frame=26768 fps= 97 q=31.0 size=   18688kB time=00:17:51.06 bitrate= 142.9kbits/s speed=3.89x    frame=26819 fps= 97 q=31.0 size=   18688kB time=00:17:53.10 bitrate= 142.7kbits/s speed=3.89x    frame=26869 fps= 97 q=31.0 size=   18688kB time=00:17:54.66 bitrate= 142.5kbits/s speed=3.89x    frame=26921 fps= 97 q=31.0 size=   18688kB time=00:17:56.71 bitrate= 142.2kbits/s speed=3.89x    frame=26971 fps= 97 q=31.0 size=   18944kB time=00:17:58.74 bitrate= 143.9kbits/s speed=3.89x    frame=27023 fps= 97 q=31.0 size=   18944kB time=00:18:00.78 bitrate= 143.6kbits/s speed=3.89x    frame=27074 fps= 97 q=31.0 size=   18944kB time=00:18:02.83 bitrate= 143.3kbits/s speed=3.89x    frame=27129 fps= 97 q=31.0 size=   18944kB time=00:18:04.90 bitrate= 143.0kbits/s speed=3.89x    frame=27181 fps= 97 q=31.0 size=   18944kB time=00:18:07.44 bitrate= 142.7kbits/s speed=3.89x    frame=27238 fps= 97 q=31.0 size=   18944kB time=00:18:09.49 bitrate= 142.4kbits/s speed=3.89x    frame=27288 fps= 97 q=31.0 size=   18944kB time=00:18:11.54 bitrate= 142.2kbits/s speed=3.89x    frame=27343 fps= 97 q=31.0 size=   19200kB time=00:18:13.58 bitrate= 143.8kbits/s speed=3.89x    frame=27398 fps= 97 q=31.0 size=   19200kB time=00:18:15.63 bitrate= 143.6kbits/s speed=3.89x    frame=27452 fps= 97 q=31.0 size=   19200kB time=00:18:17.68 bitrate= 143.3kbits/s speed=3.89x    frame=27506 fps= 97 q=28.0 size=   19200kB time=00:18:19.75 bitrate= 143.0kbits/s speed=3.89x    frame=27555 fps= 97 q=31.0 size=   19200kB time=00:18:22.29 bitrate= 142.7kbits/s speed=3.89x    frame=27605 fps= 97 q=31.0 size=   19200kB time=00:18:24.34 bitrate= 142.4kbits/s speed=3.89x    frame=27662 fps= 97 q=31.0 size=   19200kB time=00:18:26.41 bitrate= 142.2kbits/s speed= 3.9x    frame=27712 fps= 97 q=31.0 size=   19456kB time=00:18:28.43 bitrate= 143.8kbits/s speed= 3.9x    frame=27761 fps= 97 q=31.0 size=   19456kB time=00:18:30.48 bitrate= 143.5kbits/s speed= 3.9x    frame=27813 fps= 97 q=31.0 size=   19456kB time=00:18:32.53 bitrate= 143.3kbits/s speed= 3.9x    frame=27863 fps= 97 q=31.0 size=   19456kB time=00:18:34.58 bitrate= 143.0kbits/s speed= 3.9x    frame=27912 fps= 97 q=31.0 size=   19456kB time=00:18:36.62 bitrate= 142.7kbits/s speed= 3.9x    frame=27969 fps= 97 q=31.0 size=   19456kB time=00:18:38.67 bitrate= 142.5kbits/s speed= 3.9x    frame=28024 fps= 97 q=31.0 size=   19456kB time=00:18:40.72 bitrate= 142.2kbits/s speed= 3.9x    frame=28076 fps= 97 q=31.0 size=   19712kB time=00:18:42.77 bitrate= 143.8kbits/s speed= 3.9x    frame=28129 fps= 97 q=31.0 size=   19712kB time=00:18:44.82 bitrate= 143.6kbits/s speed= 3.9x    frame=28182 fps= 97 q=31.0 size=   19712kB time=00:18:47.16 bitrate= 143.3kbits/s speed= 3.9x    frame=28234 fps= 97 q=31.0 size=   19712kB time=00:18:48.91 bitrate= 143.0kbits/s speed= 3.9x    frame=28286 fps= 98 q=31.0 size=   19712kB time=00:18:50.98 bitrate= 142.8kbits/s speed= 3.9x    frame=28337 fps= 98 q=31.0 size=   19712kB time=00:18:53.01 bitrate= 142.5kbits/s speed= 3.9x    frame=28388 fps= 98 q=31.0 size=   19712kB time=00:18:55.57 bitrate= 142.2kbits/s speed= 3.9x    frame=28439 fps= 98 q=31.0 size=   19712kB time=00:18:57.62 bitrate= 141.9kbits/s speed= 3.9x    frame=28489 fps= 98 q=31.0 size=   19968kB time=00:18:59.66 bitrate= 143.5kbits/s speed= 3.9x    frame=28540 fps= 98 q=31.0 size=   19968kB time=00:19:01.71 bitrate= 143.3kbits/s speed= 3.9x    frame=28595 fps= 98 q=31.0 size=   19968kB time=00:19:03.76 bitrate= 143.0kbits/s speed= 3.9x    frame=28650 fps= 98 q=31.0 size=   19968kB time=00:19:05.81 bitrate= 142.8kbits/s speed= 3.9x    frame=28702 fps= 98 q=31.0 size=   19968kB time=00:19:07.86 bitrate= 142.5kbits/s speed= 3.9x    frame=28743 fps= 98 q=31.0 size=   19968kB time=00:19:09.90 bitrate= 142.3kbits/s speed= 3.9x    frame=28787 fps= 98 q=31.0 size=   19968kB time=00:19:11.44 bitrate= 142.1kbits/s speed= 3.9x    frame=28832 fps= 98 q=31.0 size=   20224kB time=00:19:13.34 bitrate= 143.6kbits/s speed= 3.9x    frame=28884 fps= 98 q=31.0 size=   20224kB time=00:19:15.05 bitrate= 143.4kbits/s speed= 3.9x    frame=28936 fps= 98 q=31.0 size=   20224kB time=00:19:17.09 bitrate= 143.2kbits/s speed= 3.9x    frame=28986 fps= 98 q=31.0 size=   20224kB time=00:19:19.12 bitrate= 142.9kbits/s speed= 3.9x    frame=29032 fps= 98 q=31.0 size=   20224kB time=00:19:21.17 bitrate= 142.7kbits/s speed= 3.9x    frame=29083 fps= 98 q=31.0 size=   20224kB time=00:19:23.22 bitrate= 142.4kbits/s speed= 3.9x    frame=29135 fps= 98 q=31.0 size=   20224kB time=00:19:25.26 bitrate= 142.2kbits/s speed= 3.9x    frame=29185 fps= 98 q=31.0 size=   20224kB time=00:19:27.82 bitrate= 141.9kbits/s speed= 3.9x    frame=29235 fps= 98 q=31.0 size=   20480kB time=00:19:29.36 bitrate= 143.5kbits/s speed= 3.9x    frame=29284 fps= 98 q=31.0 size=   20480kB time=00:19:31.41 bitrate= 143.2kbits/s speed= 3.9x    frame=29337 fps= 98 q=31.0 size=   20480kB time=00:19:33.46 bitrate= 143.0kbits/s speed= 3.9x    frame=29388 fps= 98 q=31.0 size=   20480kB time=00:19:35.50 bitrate= 142.7kbits/s speed= 3.9x    frame=29436 fps= 98 q=31.0 size=   20480kB time=00:19:37.55 bitrate= 142.5kbits/s speed= 3.9x    frame=29487 fps= 98 q=31.0 size=   20480kB time=00:19:39.60 bitrate= 142.2kbits/s speed= 3.9x    frame=29539 fps= 98 q=31.0 size=   20480kB time=00:19:41.65 bitrate= 142.0kbits/s speed= 3.9x    frame=29591 fps= 98 q=31.0 size=   20736kB time=00:19:43.70 bitrate= 143.5kbits/s speed= 3.9x    frame=29640 fps= 98 q=31.0 size=   20736kB time=00:19:45.74 bitrate= 143.3kbits/s speed= 3.9x    frame=29690 fps= 98 q=31.0 size=   20736kB time=00:19:47.66 bitrate= 143.0kbits/s speed= 3.9x    frame=29742 fps= 98 q=31.0 size=   20736kB time=00:19:49.35 bitrate= 142.8kbits/s speed= 3.9x    frame=29792 fps= 98 q=31.0 size=   20736kB time=00:19:51.38 bitrate= 142.6kbits/s speed= 3.9x    frame=29839 fps= 98 q=31.0 size=   20736kB time=00:19:53.42 bitrate= 142.3kbits/s speed= 3.9x    frame=29887 fps= 98 q=31.0 size=   20736kB time=00:19:55.47 bitrate= 142.1kbits/s speed= 3.9x    frame=29939 fps= 98 q=31.0 size=   20992kB time=00:19:57.52 bitrate= 143.6kbits/s speed= 3.9x    frame=29989 fps= 98 q=31.0 size=   20992kB time=00:19:59.06 bitrate= 143.4kbits/s speed= 3.9x    frame=30033 fps= 98 q=31.0 size=   20992kB time=00:20:01.62 bitrate= 143.1kbits/s speed= 3.9x    frame=30084 fps= 98 q=31.0 size=   20992kB time=00:20:03.66 bitrate= 142.9kbits/s speed= 3.9x    frame=30134 fps= 98 q=31.0 size=   20992kB time=00:20:05.71 bitrate= 142.6kbits/s speed= 3.9x    frame=30186 fps= 98 q=31.0 size=   20992kB time=00:20:07.76 bitrate= 142.4kbits/s speed=3.91x    frame=30236 fps= 98 q=31.0 size=   20992kB time=00:20:09.74 bitrate= 142.2kbits/s speed=3.91x    frame=30288 fps= 98 q=31.0 size=   20992kB time=00:20:11.52 bitrate= 141.9kbits/s speed= 3.9x    frame=30335 fps= 98 q=31.0 size=   21248kB time=00:20:13.39 bitrate= 143.5kbits/s speed= 3.9x    frame=30386 fps= 98 q=31.0 size=   21248kB time=00:20:15.44 bitrate= 143.2kbits/s speed= 3.9x    frame=30435 fps= 98 q=31.0 size=   21248kB time=00:20:17.49 bitrate= 143.0kbits/s speed= 3.9x    frame=30485 fps= 98 q=31.0 size=   21248kB time=00:20:19.54 bitrate= 142.7kbits/s speed=3.91x    frame=30538 fps= 98 q=31.0 size=   21248kB time=00:20:21.58 bitrate= 142.5kbits/s speed=3.91x    frame=30587 fps= 98 q=31.0 size=   21248kB time=00:20:23.14 bitrate= 142.3kbits/s speed= 3.9x    frame=30637 fps= 98 q=31.0 size=   21248kB time=00:20:25.17 bitrate= 142.1kbits/s speed= 3.9x    frame=30690 fps= 98 q=31.0 size=   21248kB time=00:20:27.22 bitrate= 141.8kbits/s speed= 3.9x    frame=30730 fps= 98 q=31.0 size=   21504kB time=00:20:28.99 bitrate= 143.3kbits/s speed= 3.9x    frame=30777 fps= 98 q=31.0 size=   21504kB time=00:20:30.80 bitrate= 143.1kbits/s speed= 3.9x    frame=30830 fps= 98 q=31.0 size=   21504kB time=00:20:32.85 bitrate= 142.9kbits/s speed= 3.9x    frame=30879 fps= 98 q=31.0 size=   21504kB time=00:20:35.41 bitrate= 142.6kbits/s speed=3.91x    frame=30928 fps= 98 q=31.0 size=   21504kB time=00:20:37.46 bitrate= 142.4kbits/s speed=3.91x    frame=30980 fps= 98 q=31.0 size=   21504kB time=00:20:39.50 bitrate= 142.1kbits/s speed=3.91x    frame=31032 fps= 98 q=31.0 size=   21504kB time=00:20:41.55 bitrate= 141.9kbits/s speed=3.91x    frame=31078 fps= 98 q=31.0 size=   21760kB time=00:20:43.09 bitrate= 143.4kbits/s speed= 3.9x    frame=31128 fps= 98 q=31.0 size=   21760kB time=00:20:45.14 bitrate= 143.2kbits/s speed= 3.9x    frame=31174 fps= 98 q=31.0 size=   21760kB time=00:20:47.18 bitrate= 142.9kbits/s speed= 3.9x    frame=31224 fps= 98 q=31.0 size=   21760kB time=00:20:48.72 bitrate= 142.8kbits/s speed= 3.9x    frame=31275 fps= 98 q=31.0 size=   21760kB time=00:20:50.77 bitrate= 142.5kbits/s speed= 3.9x    frame=31324 fps= 98 q=31.0 size=   21760kB time=00:20:52.82 bitrate= 142.3kbits/s speed= 3.9x    frame=31365 fps= 98 q=31.0 size=   21760kB time=00:20:54.35 bitrate= 142.1kbits/s speed= 3.9x    frame=31414 fps= 98 q=31.0 size=   21760kB time=00:20:56.40 bitrate= 141.9kbits/s speed= 3.9x    frame=31463 fps= 98 q=31.0 size=   22016kB time=00:20:58.45 bitrate= 143.3kbits/s speed= 3.9x    frame=31515 fps= 98 q=31.0 size=   22016kB time=00:21:00.50 bitrate= 143.1kbits/s speed= 3.9x    frame=31566 fps= 98 q=31.0 size=   22016kB time=00:21:02.54 bitrate= 142.9kbits/s speed= 3.9x    frame=31616 fps= 98 q=31.0 size=   22016kB time=00:21:04.59 bitrate= 142.6kbits/s speed= 3.9x    frame=31666 fps= 98 q=31.0 size=   22016kB time=00:21:06.68 bitrate= 142.4kbits/s speed= 3.9x    frame=31718 fps= 98 q=31.0 size=   22016kB time=00:21:08.71 bitrate= 142.2kbits/s speed= 3.9x    frame=31767 fps= 98 q=31.0 size=   22016kB time=00:21:10.74 bitrate= 141.9kbits/s speed= 3.9x    frame=31815 fps= 98 q=31.0 size=   22272kB time=00:21:12.78 bitrate= 143.3kbits/s speed=3.91x    frame=31865 fps= 98 q=31.0 size=   22272kB time=00:21:14.83 bitrate= 143.1kbits/s speed=3.91x    frame=31915 fps= 98 q=31.0 size=   22272kB time=00:21:16.88 bitrate= 142.9kbits/s speed=3.91x    frame=31965 fps= 98 q=31.0 size=   22272kB time=00:21:18.44 bitrate= 142.7kbits/s speed= 3.9x    frame=32017 fps= 98 q=31.0 size=   22272kB time=00:21:20.49 bitrate= 142.5kbits/s speed= 3.9x    frame=32064 fps= 98 q=31.0 size=   22272kB time=00:21:22.51 bitrate= 142.3kbits/s speed= 3.9x    frame=32114 fps= 98 q=31.0 size=   22272kB time=00:21:24.56 bitrate= 142.0kbits/s speed= 3.9x    frame=32160 fps= 98 q=31.0 size=   22272kB time=00:21:26.10 bitrate= 141.9kbits/s speed= 3.9x    frame=32205 fps= 98 q=31.0 size=   22528kB time=00:21:28.14 bitrate= 143.3kbits/s speed= 3.9x    frame=32257 fps= 98 q=31.0 size=   22528kB time=00:21:30.19 bitrate= 143.0kbits/s speed= 3.9x    frame=32312 fps= 98 q=31.0 size=   22528kB time=00:21:32.24 bitrate= 142.8kbits/s speed= 3.9x    frame=32360 fps= 98 q=31.0 size=   22528kB time=00:21:34.29 bitrate= 142.6kbits/s speed= 3.9x    frame=32414 fps= 98 q=31.0 size=   22528kB time=00:21:36.34 bitrate= 142.4kbits/s speed= 3.9x    frame=32465 fps= 98 q=31.0 size=   22528kB time=00:21:38.38 bitrate= 142.1kbits/s speed= 3.9x    frame=32518 fps= 98 q=31.0 size=   22528kB time=00:21:40.94 bitrate= 141.9kbits/s speed=3.91x    frame=32575 fps= 98 q=31.0 size=   22784kB time=00:21:42.99 bitrate= 143.2kbits/s speed=3.91x    frame=32628 fps= 98 q=31.0 size=   22784kB time=00:21:45.06 bitrate= 143.0kbits/s speed=3.91x    frame=32684 fps= 98 q=31.0 size=   22784kB time=00:21:47.60 bitrate= 142.7kbits/s speed=3.91x    frame=32736 fps= 98 q=31.0 size=   22784kB time=00:21:49.65 bitrate= 142.5kbits/s speed=3.91x    frame=32790 fps= 98 q=31.0 size=   22784kB time=00:21:51.70 bitrate= 142.3kbits/s speed=3.91x    frame=32842 fps= 98 q=31.0 size=   22784kB time=00:21:53.74 bitrate= 142.1kbits/s speed=3.91x    frame=32897 fps= 98 q=31.0 size=   22784kB time=00:21:55.79 bitrate= 141.9kbits/s speed=3.91x    frame=32953 fps= 98 q=31.0 size=   23040kB time=00:21:57.86 bitrate= 143.2kbits/s speed=3.91x    frame=33002 fps= 98 q=31.0 size=   23040kB time=00:21:59.89 bitrate= 143.0kbits/s speed=3.91x    frame=33052 fps= 98 q=31.0 size=   23040kB time=00:22:01.94 bitrate= 142.8kbits/s speed=3.91x    frame=33106 fps= 98 q=31.0 size=   23040kB time=00:22:03.98 bitrate= 142.6kbits/s speed=3.91x    frame=33157 fps= 98 q=31.0 size=   23040kB time=00:22:06.03 bitrate= 142.3kbits/s speed=3.91x    frame=33212 fps= 98 q=31.0 size=   23040kB time=00:22:08.08 bitrate= 142.1kbits/s speed=3.91x    frame=33265 fps= 98 q=31.0 size=   23040kB time=00:22:10.15 bitrate= 141.9kbits/s speed=3.91x    frame=33319 fps= 98 q=31.0 size=   23296kB time=00:22:12.69 bitrate= 143.2kbits/s speed=3.91x    frame=33362 fps= 98 q=31.0 size=   23296kB time=00:22:14.74 bitrate= 143.0kbits/s speed=3.91x    frame=33419 fps= 98 q=31.0 size=   23296kB time=00:22:16.78 bitrate= 142.8kbits/s speed=3.91x    frame=33472 fps= 98 q=31.0 size=   23296kB time=00:22:18.83 bitrate= 142.5kbits/s speed=3.91x    frame=33525 fps= 98 q=31.0 size=   23296kB time=00:22:21.35 bitrate= 142.3kbits/s speed=3.92x    frame=33582 fps= 98 q=31.0 size=   23296kB time=00:22:23.44 bitrate= 142.1kbits/s speed=3.92x    frame=33635 fps= 98 q=31.0 size=   23296kB time=00:22:25.49 bitrate= 141.8kbits/s speed=3.92x    frame=33690 fps= 98 q=31.0 size=   23552kB time=00:22:27.54 bitrate= 143.2kbits/s speed=3.92x    frame=33733 fps= 98 q=31.0 size=   23552kB time=00:22:29.20 bitrate= 143.0kbits/s speed=3.92x    frame=33783 fps= 98 q=31.0 size=   23552kB time=00:22:31.12 bitrate= 142.8kbits/s speed=3.92x    frame=33835 fps= 98 q=31.0 size=   23552kB time=00:22:33.17 bitrate= 142.6kbits/s speed=3.92x    frame=33887 fps= 98 q=31.0 size=   23552kB time=00:22:35.22 bitrate= 142.4kbits/s speed=3.92x    frame=33931 fps= 98 q=31.0 size=   23552kB time=00:22:37.26 bitrate= 142.2kbits/s speed=3.92x    frame=33980 fps= 98 q=31.0 size=   23552kB time=00:22:38.82 bitrate= 142.0kbits/s speed=3.91x    frame=34031 fps= 98 q=31.0 size=   23552kB time=00:22:40.85 bitrate= 141.8kbits/s speed=3.91x    frame=34084 fps= 98 q=31.0 size=   23808kB time=00:22:42.92 bitrate= 143.1kbits/s speed=3.91x    frame=34130 fps= 98 q=31.0 size=   23808kB time=00:22:44.94 bitrate= 142.9kbits/s speed=3.92x    frame=34183 fps= 98 q=31.0 size=   23808kB time=00:22:47.50 bitrate= 142.6kbits/s speed=3.92x    frame=34229 fps= 98 q=31.0 size=   23808kB time=00:22:49.55 bitrate= 142.4kbits/s speed=3.92x    frame=34279 fps= 98 q=31.0 size=   23808kB time=00:22:51.41 bitrate= 142.2kbits/s speed=3.92x    frame=34324 fps= 98 q=31.0 size=   23808kB time=00:22:53.14 bitrate= 142.0kbits/s speed=3.92x    frame=34373 fps= 98 q=31.0 size=   23808kB time=00:22:55.18 bitrate= 141.8kbits/s speed=3.92x    frame=34427 fps= 98 q=31.0 size=   24064kB time=00:22:57.23 bitrate= 143.1kbits/s speed=3.92x    frame=34482 fps= 98 q=31.0 size=   24064kB time=00:22:59.28 bitrate= 142.9kbits/s speed=3.92x    frame=34534 fps= 98 q=31.0 size=   24064kB time=00:23:01.33 bitrate= 142.7kbits/s speed=3.92x    frame=34584 fps= 98 q=28.0 size=   24064kB time=00:23:03.38 bitrate= 142.5kbits/s speed=3.92x    frame=34633 fps= 98 q=31.0 size=   24064kB time=00:23:05.42 bitrate= 142.3kbits/s speed=3.92x    frame=34682 fps= 98 q=31.0 size=   24064kB time=00:23:06.98 bitrate= 142.1kbits/s speed=3.92x    frame=34734 fps= 98 q=31.0 size=   24064kB time=00:23:09.01 bitrate= 141.9kbits/s speed=3.92x    frame=34786 fps= 98 q=31.0 size=   24320kB time=00:23:11.06 bitrate= 143.2kbits/s speed=3.92x    frame=34830 fps= 98 q=31.0 size=   24320kB time=00:23:13.10 bitrate= 143.0kbits/s speed=3.92x    frame=34881 fps= 98 q=31.0 size=   24320kB time=00:23:15.15 bitrate= 142.8kbits/s speed=3.92x    frame=34934 fps= 98 q=31.0 size=   24320kB time=00:23:17.20 bitrate= 142.6kbits/s speed=3.92x    frame=34984 fps= 98 q=31.0 size=   24320kB time=00:23:19.25 bitrate= 142.4kbits/s speed=3.92x    frame=35035 fps= 98 q=31.0 size=   24320kB time=00:23:21.81 bitrate= 142.1kbits/s speed=3.92x    frame=35085 fps= 98 q=31.0 size=   24320kB time=00:23:23.49 bitrate= 142.0kbits/s speed=3.92x    frame=35137 fps= 98 q=31.0 size=   24576kB time=00:23:25.41 bitrate= 143.3kbits/s speed=3.92x    frame=35189 fps= 98 q=31.0 size=   24576kB time=00:23:27.46 bitrate= 143.0kbits/s speed=3.92x    frame=35241 fps= 98 q=31.0 size=   24576kB time=00:23:29.51 bitrate= 142.8kbits/s speed=3.92x    frame=35293 fps= 98 q=31.0 size=   24576kB time=00:23:31.77 bitrate= 142.6kbits/s speed=3.92x    frame=35344 fps= 98 q=31.0 size=   24576kB time=00:23:33.58 bitrate= 142.4kbits/s speed=3.92x    frame=35396 fps= 98 q=31.0 size=   24576kB time=00:23:35.63 bitrate= 142.2kbits/s speed=3.92x    frame=35443 fps= 98 q=31.0 size=   24576kB time=00:23:37.68 bitrate= 142.0kbits/s speed=3.92x    frame=35497 fps= 98 q=31.0 size=   24576kB time=00:23:39.73 bitrate= 141.8kbits/s speed=3.92x    frame=35549 fps= 98 q=31.0 size=   24832kB time=00:23:41.78 bitrate= 143.1kbits/s speed=3.92x    frame=35602 fps= 98 q=31.0 size=   24832kB time=00:23:43.82 bitrate= 142.9kbits/s speed=3.92x    frame=35654 fps= 98 q=31.0 size=   24832kB time=00:23:45.87 bitrate= 142.7kbits/s speed=3.92x    frame=35709 fps= 98 q=31.0 size=   24832kB time=00:23:48.20 bitrate= 142.4kbits/s speed=3.92x    frame=35758 fps= 98 q=31.0 size=   24832kB time=00:23:49.97 bitrate= 142.3kbits/s speed=3.92x    frame=35809 fps= 98 q=31.0 size=   24832kB time=00:23:52.02 bitrate= 142.1kbits/s speed=3.92x    frame=35860 fps= 98 q=31.0 size=   24832kB time=00:23:54.58 bitrate= 141.8kbits/s speed=3.92x    frame=35909 fps= 98 q=31.0 size=   25088kB time=00:23:56.62 bitrate= 143.1kbits/s speed=3.92x    frame=35954 fps= 98 q=31.0 size=   25088kB time=00:23:58.16 bitrate= 142.9kbits/s speed=3.92x    frame=36005 fps= 98 q=31.0 size=   25088kB time=00:24:00.21 bitrate= 142.7kbits/s speed=3.92x    frame=36052 fps= 98 q=31.0 size=   25088kB time=00:24:02.26 bitrate= 142.5kbits/s speed=3.92x    frame=36099 fps= 98 q=31.0 size=   25088kB time=00:24:04.22 bitrate= 142.3kbits/s speed=3.92x    frame=36151 fps= 98 q=31.0 size=   25088kB time=00:24:06.31 bitrate= 142.1kbits/s speed=3.92x    frame=36203 fps= 98 q=31.0 size=   25088kB time=00:24:08.04 bitrate= 141.9kbits/s speed=3.92x    frame=36254 fps= 98 q=31.0 size=   25344kB time=00:24:09.94 bitrate= 143.2kbits/s speed=3.92x    frame=36307 fps= 98 q=31.0 size=   25344kB time=00:24:11.98 bitrate= 143.0kbits/s speed=3.92x    frame=36353 fps= 98 q=31.0 size=   25344kB time=00:24:14.03 bitrate= 142.8kbits/s speed=3.92x    frame=36400 fps= 98 q=31.0 size=   25344kB time=00:24:16.08 bitrate= 142.6kbits/s speed=3.92x    frame=36447 fps= 98 q=31.0 size=   25344kB time=00:24:17.62 bitrate= 142.4kbits/s speed=3.92x    frame=36497 fps= 98 q=31.0 size=   25344kB time=00:24:19.66 bitrate= 142.2kbits/s speed=3.92x    frame=36548 fps= 98 q=31.0 size=   25344kB time=00:24:21.71 bitrate= 142.0kbits/s speed=3.92x    frame=36597 fps= 98 q=31.0 size=   25344kB time=00:24:23.76 bitrate= 141.8kbits/s speed=3.92x    frame=36644 fps= 98 q=31.0 size=   25600kB time=00:24:25.30 bitrate= 143.1kbits/s speed=3.92x    frame=36697 fps= 98 q=31.0 size=   25600kB time=00:24:27.86 bitrate= 142.9kbits/s speed=3.92x    frame=36749 fps= 98 q=31.0 size=   25600kB time=00:24:30.12 bitrate= 142.7kbits/s speed=3.92x    frame=36801 fps= 98 q=31.0 size=   25600kB time=00:24:31.95 bitrate= 142.5kbits/s speed=3.92x    frame=36853 fps= 98 q=31.0 size=   25600kB time=00:24:34.00 bitrate= 142.3kbits/s speed=3.92x    frame=36904 fps= 98 q=31.0 size=   25600kB time=00:24:36.05 bitrate= 142.1kbits/s speed=3.92x    frame=36956 fps= 98 q=31.0 size=   25600kB time=00:24:38.10 bitrate= 141.9kbits/s speed=3.92x    frame=37009 fps= 98 q=31.0 size=   25856kB time=00:24:40.61 bitrate= 143.1kbits/s speed=3.92x    frame=37061 fps= 98 q=31.0 size=   25856kB time=00:24:42.21 bitrate= 142.9kbits/s speed=3.92x    frame=37113 fps= 98 q=31.0 size=   25856kB time=00:24:44.62 bitrate= 142.7kbits/s speed=3.92x    frame=37165 fps= 98 q=31.0 size=   25856kB time=00:24:46.59 bitrate= 142.5kbits/s speed=3.92x    frame=37217 fps= 98 q=31.0 size=   25856kB time=00:24:48.34 bitrate= 142.3kbits/s speed=3.92x    frame=37269 fps= 98 q=31.0 size=   25856kB time=00:24:50.41 bitrate= 142.1kbits/s speed=3.92x    frame=37321 fps= 98 q=31.0 size=   25856kB time=00:24:52.58 bitrate= 141.9kbits/s speed=3.92x    frame=37373 fps= 98 q=31.0 size=   26112kB time=00:24:54.50 bitrate= 143.1kbits/s speed=3.92x    frame=37425 fps= 98 q=31.0 size=   26112kB time=00:24:56.53 bitrate= 142.9kbits/s speed=3.92x    frame=37476 fps= 98 q=31.0 size=   26112kB time=00:24:58.58 bitrate= 142.7kbits/s speed=3.92x    frame=37522 fps= 98 q=31.0 size=   26112kB time=00:25:01.14 bitrate= 142.5kbits/s speed=3.93x    frame=37570 fps= 98 q=31.0 size=   26112kB time=00:25:03.18 bitrate= 142.3kbits/s speed=3.93x    frame=37626 fps= 98 q=31.0 size=   26112kB time=00:25:05.23 bitrate= 142.1kbits/s speed=3.93x    frame=37678 fps= 98 q=31.0 size=   26112kB time=00:25:07.28 bitrate= 141.9kbits/s speed=3.93x    frame=37722 fps= 98 q=31.0 size=   26368kB time=00:25:08.82 bitrate= 143.2kbits/s speed=3.93x    frame=37766 fps= 98 q=31.0 size=   26368kB time=00:25:10.86 bitrate= 143.0kbits/s speed=3.93x    frame=37812 fps= 98 q=31.0 size=   26368kB time=00:25:12.40 bitrate= 142.8kbits/s speed=3.92x    frame=37857 fps= 98 q=31.0 size=   26368kB time=00:25:14.45 bitrate= 142.6kbits/s speed=3.92x    frame=37906 fps= 98 q=31.0 size=   26368kB time=00:25:16.01 bitrate= 142.5kbits/s speed=3.92x    frame=37956 fps= 98 q=31.0 size=   26368kB time=00:25:18.03 bitrate= 142.3kbits/s speed=3.92x    frame=38006 fps= 98 q=31.0 size=   26368kB time=00:25:20.08 bitrate= 142.1kbits/s speed=3.92x    frame=38051 fps= 98 q=31.0 size=   26368kB time=00:25:22.13 bitrate= 141.9kbits/s speed=3.92x    frame=38101 fps= 98 q=31.0 size=   26624kB time=00:25:23.66 bitrate= 143.1kbits/s speed=3.92x    frame=38152 fps= 98 q=31.0 size=   26624kB time=00:25:25.71 bitrate= 143.0kbits/s speed=3.92x    frame=38199 fps= 98 q=31.0 size=   26624kB time=00:25:27.76 bitrate= 142.8kbits/s speed=3.92x    frame=38250 fps= 98 q=31.0 size=   26624kB time=00:25:29.81 bitrate= 142.6kbits/s speed=3.92x    frame=38300 fps= 98 q=31.0 size=   26624kB time=00:25:31.86 bitrate= 142.4kbits/s speed=3.92x    frame=38351 fps= 98 q=31.0 size=   26624kB time=00:25:34.42 bitrate= 142.1kbits/s speed=3.92x    frame=38399 fps= 98 q=31.0 size=   26624kB time=00:25:35.95 bitrate= 142.0kbits/s speed=3.92x    frame=38450 fps= 98 q=31.0 size=   26624kB time=00:25:38.00 bitrate= 141.8kbits/s speed=3.92x    frame=38497 fps= 98 q=31.0 size=   26880kB time=00:25:40.05 bitrate= 143.0kbits/s speed=3.92x    frame=38548 fps= 98 q=31.0 size=   26880kB time=00:25:42.10 bitrate= 142.8kbits/s speed=3.92x    frame=38602 fps= 98 q=31.0 size=   26880kB time=00:25:44.14 bitrate= 142.6kbits/s speed=3.92x    frame=38653 fps= 98 q=31.0 size=   26880kB time=00:25:46.19 bitrate= 142.4kbits/s speed=3.92x    frame=38699 fps= 98 q=31.0 size=   26880kB time=00:25:47.73 bitrate= 142.3kbits/s speed=3.92x    frame=38751 fps= 98 q=31.0 size=   26880kB time=00:25:49.78 bitrate= 142.1kbits/s speed=3.92x    frame=38803 fps= 98 q=31.0 size=   26880kB time=00:25:51.85 bitrate= 141.9kbits/s speed=3.92x    frame=38855 fps= 98 q=31.0 size=   27136kB time=00:25:53.94 bitrate= 143.1kbits/s speed=3.92x    frame=38907 fps= 98 q=31.0 size=   27136kB time=00:25:55.94 bitrate= 142.9kbits/s speed=3.92x    frame=38959 fps= 98 q=31.0 size=   27136kB time=00:25:58.20 bitrate= 142.7kbits/s speed=3.92x    frame=39009 fps= 98 q=31.0 size=   27136kB time=00:26:00.02 bitrate= 142.5kbits/s speed=3.92x    frame=39063 fps= 98 q=31.0 size=   27136kB time=00:26:02.06 bitrate= 142.3kbits/s speed=3.92x    frame=39112 fps= 98 q=31.0 size=   27136kB time=00:26:04.11 bitrate= 142.1kbits/s speed=3.92x    frame=39161 fps= 98 q=31.0 size=   27136kB time=00:26:06.67 bitrate= 141.9kbits/s speed=3.93x    frame=39213 fps= 98 q=31.0 size=   27136kB time=00:26:08.72 bitrate= 141.7kbits/s speed=3.93x    frame=39261 fps= 98 q=31.0 size=   27392kB time=00:26:10.77 bitrate= 142.9kbits/s speed=3.93x    frame=39310 fps= 98 q=31.0 size=   27392kB time=00:26:12.67 bitrate= 142.7kbits/s speed=3.93x    frame=39355 fps= 98 q=31.0 size=   27392kB time=00:26:14.35 bitrate= 142.5kbits/s speed=3.93x    frame=39403 fps= 98 q=31.0 size=   27392kB time=00:26:16.40 bitrate= 142.3kbits/s speed=3.93x    frame=39456 fps= 98 q=31.0 size=   27392kB time=00:26:18.45 bitrate= 142.2kbits/s speed=3.93x    frame=39505 fps= 98 q=31.0 size=   27392kB time=00:26:20.09 bitrate= 142.0kbits/s speed=3.93x    frame=39554 fps= 98 q=31.0 size=   27392kB time=00:26:22.03 bitrate= 141.8kbits/s speed=3.93x    frame=39596 fps= 98 q=31.0 size=   27392kB time=00:26:23.59 bitrate= 141.7kbits/s speed=3.92x    frame=39644 fps= 98 q=31.0 size=   27648kB time=00:26:25.62 bitrate= 142.8kbits/s speed=3.92x    frame=39693 fps= 98 q=31.0 size=   27648kB time=00:26:27.66 bitrate= 142.7kbits/s speed=3.92x    frame=39746 fps= 98 q=31.0 size=   27648kB time=00:26:29.71 bitrate= 142.5kbits/s speed=3.92x    frame=39796 fps= 98 q=31.0 size=   27648kB time=00:26:31.76 bitrate= 142.3kbits/s speed=3.92x    frame=39848 fps= 98 q=31.0 size=   27648kB time=00:26:33.81 bitrate= 142.1kbits/s speed=3.92x    frame=39898 fps= 98 q=31.0 size=   27648kB time=00:26:35.86 bitrate= 141.9kbits/s speed=3.92x    frame=39952 fps= 98 q=31.0 size=   27648kB time=00:26:37.90 bitrate= 141.7kbits/s speed=3.93x    frame=40002 fps= 98 q=31.0 size=   27904kB time=00:26:40.46 bitrate= 142.8kbits/s speed=3.93x    frame=40054 fps= 98 q=31.0 size=   27904kB time=00:26:42.51 bitrate= 142.6kbits/s speed=3.93x    frame=40106 fps= 98 q=31.0 size=   27904kB time=00:26:44.56 bitrate= 142.5kbits/s speed=3.93x    frame=40154 fps= 98 q=31.0 size=   27904kB time=00:26:46.10 bitrate= 142.3kbits/s speed=3.93x    frame=40199 fps= 98 q=31.0 size=   27904kB time=00:26:48.14 bitrate= 142.1kbits/s speed=3.93x    frame=40246 fps= 98 q=31.0 size=   27904kB time=00:26:50.09 bitrate= 142.0kbits/s speed=3.93x    frame=40292 fps= 98 q=31.0 size=   27904kB time=00:26:51.73 bitrate= 141.8kbits/s speed=3.93x    frame=40337 fps= 98 q=31.0 size=   27904kB time=00:26:53.52 bitrate= 141.7kbits/s speed=3.92x    frame=40384 fps= 98 q=31.0 size=   28160kB time=00:26:55.31 bitrate= 142.8kbits/s speed=3.92x    frame=40431 fps= 98 q=31.0 size=   28160kB time=00:26:57.36 bitrate= 142.6kbits/s speed=3.92x    frame=40480 fps= 98 q=31.0 size=   28160kB time=00:26:59.41 bitrate= 142.5kbits/s speed=3.92x    frame=40535 fps= 98 q=31.0 size=   28160kB time=00:27:01.46 bitrate= 142.3kbits/s speed=3.92x    frame=40581 fps= 98 q=31.0 size=   28160kB time=00:27:02.99 bitrate= 142.1kbits/s speed=3.92x    frame=40633 fps= 98 q=31.0 size=   28160kB time=00:27:05.04 bitrate= 142.0kbits/s speed=3.92x    frame=40685 fps= 98 q=31.0 size=   28160kB time=00:27:07.09 bitrate= 141.8kbits/s speed=3.92x    frame=40736 fps= 98 q=31.0 size=   28416kB time=00:27:09.14 bitrate= 142.9kbits/s speed=3.92x    frame=40787 fps= 98 q=31.0 size=   28416kB time=00:27:11.18 bitrate= 142.7kbits/s speed=3.92x    frame=40835 fps= 98 q=31.0 size=   28416kB time=00:27:13.74 bitrate= 142.5kbits/s speed=3.93x    frame=40887 fps= 98 q=31.0 size=   28416kB time=00:27:15.79 bitrate= 142.3kbits/s speed=3.93x    frame=40935 fps= 98 q=31.0 size=   28416kB time=00:27:17.35 bitrate= 142.2kbits/s speed=3.92x    frame=40985 fps= 98 q=31.0 size=   28416kB time=00:27:19.38 bitrate= 142.0kbits/s speed=3.92x    frame=41035 fps= 98 q=31.0 size=   28416kB time=00:27:21.42 bitrate= 141.8kbits/s speed=3.92x    frame=41087 fps= 98 q=31.0 size=   28416kB time=00:27:23.47 bitrate= 141.6kbits/s speed=3.93x    frame=41136 fps= 98 q=31.0 size=   28672kB time=00:27:25.52 bitrate= 142.7kbits/s speed=3.93x    frame=41187 fps= 98 q=31.0 size=   28672kB time=00:27:27.57 bitrate= 142.6kbits/s speed=3.93x    frame=41234 fps= 98 q=31.0 size=   28672kB time=00:27:29.49 bitrate= 142.4kbits/s speed=3.93x    frame=41286 fps= 98 q=31.0 size=   28672kB time=00:27:31.62 bitrate= 142.2kbits/s speed=3.93x    frame=41339 fps= 98 q=31.0 size=   28672kB time=00:27:33.71 bitrate= 142.0kbits/s speed=3.93x    frame=41388 fps= 98 q=31.0 size=   28672kB time=00:27:35.25 bitrate= 141.9kbits/s speed=3.93x    frame=41440 fps= 98 q=31.0 size=   28672kB time=00:27:37.30 bitrate= 141.7kbits/s speed=3.93x    frame=41494 fps= 98 q=31.0 size=   28928kB time=00:27:39.34 bitrate= 142.8kbits/s speed=3.93x    frame=41544 fps= 98 q=31.0 size=   28928kB time=00:27:41.39 bitrate= 142.6kbits/s speed=3.93x    frame=41588 fps= 98 q=31.0 size=   28928kB time=00:27:43.44 bitrate= 142.5kbits/s speed=3.93x    frame=41641 fps= 98 q=31.0 size=   28928kB time=00:27:45.49 bitrate= 142.3kbits/s speed=3.93x    frame=41689 fps= 98 q=31.0 size=   28928kB time=00:27:47.56 bitrate= 142.1kbits/s speed=3.93x    frame=41738 fps= 98 q=31.0 size=   28928kB time=00:27:49.58 bitrate= 141.9kbits/s speed=3.93x    frame=41789 fps= 98 q=31.0 size=   28928kB time=00:27:51.63 bitrate= 141.8kbits/s speed=3.93x    frame=41836 fps= 98 q=31.0 size=   28928kB time=00:27:53.68 bitrate= 141.6kbits/s speed=3.93x    frame=41888 fps= 98 q=31.0 size=   29184kB time=00:27:55.73 bitrate= 142.7kbits/s speed=3.93x    frame=41942 fps= 98 q=31.0 size=   29184kB time=00:27:57.78 bitrate= 142.5kbits/s speed=3.93x    frame=41988 fps= 98 q=31.0 size=   29184kB time=00:27:59.80 bitrate= 142.3kbits/s speed=3.93x    frame=42036 fps= 98 q=31.0 size=   29184kB time=00:28:01.36 bitrate= 142.2kbits/s speed=3.93x    frame=42089 fps= 98 q=31.0 size=   29184kB time=00:28:03.41 bitrate= 142.0kbits/s speed=3.93x    frame=42140 fps= 98 q=31.0 size=   29184kB time=00:28:05.46 bitrate= 141.8kbits/s speed=3.93x    frame=42191 fps= 98 q=31.0 size=   29184kB time=00:28:07.50 bitrate= 141.7kbits/s speed=3.93x    frame=42239 fps= 98 q=31.0 size=   29440kB time=00:28:09.55 bitrate= 142.7kbits/s speed=3.93x    frame=42286 fps= 98 q=31.0 size=   29440kB time=00:28:11.09 bitrate= 142.6kbits/s speed=3.93x    frame=42334 fps= 98 q=31.0 size=   29440kB time=00:28:13.14 bitrate= 142.4kbits/s speed=3.93x    frame=42385 fps= 98 q=31.0 size=   29440kB time=00:28:15.18 bitrate= 142.3kbits/s speed=3.93x    frame=42434 fps= 98 q=31.0 size=   29440kB time=00:28:17.23 bitrate= 142.1kbits/s speed=3.93x    frame=42482 fps= 98 q=31.0 size=   29440kB time=00:28:19.28 bitrate= 141.9kbits/s speed=3.93x    frame=42524 fps= 98 q=31.0 size=   29440kB time=00:28:21.33 bitrate= 141.8kbits/s speed=3.93x    frame=42573 fps= 98 q=31.0 size=   29440kB time=00:28:22.89 bitrate= 141.6kbits/s speed=3.93x    frame=42615 fps= 98 q=31.0 size=   29696kB time=00:28:24.91 bitrate= 142.7kbits/s speed=3.93x    frame=42659 fps= 98 q=31.0 size=   29696kB time=00:28:26.45 bitrate= 142.6kbits/s speed=3.92x    frame=42706 fps= 98 q=31.0 size=   29696kB time=00:28:28.50 bitrate= 142.4kbits/s speed=3.92x    frame=42753 fps= 98 q=31.0 Lsize=   31091kB time=00:28:30.12 bitrate= 148.9kbits/s speed=3.92x    
video:2881kB audio:26939kB subtitle:0kB other streams:0kB global headers:0kB muxing overhead: 4.263124%
[libx264 @ 0x55e5d1960f00] frame I:190   Avg QP:16.54  size:  8522
[libx264 @ 0x55e5d1960f00] frame P:11063 Avg QP:18.23  size:    71
[libx264 @ 0x55e5d1960f00] frame B:31500 Avg QP:23.83  size:    17
[libx264 @ 0x55e5d1960f00] consecutive B-frames:  1.7%  0.2%  0.2% 97.9%
[libx264 @ 0x55e5d1960f00] mb I  I16..4: 27.6% 39.2% 33.2%
[libx264 @ 0x55e5d1960f00] mb P  I16..4:  0.1%  0.1%  0.0%  P16..4:  2.0%  0.5%  0.3%  0.0%  0.0%    skip:97.0%
[libx264 @ 0x55e5d1960f00] mb B  I16..4:  0.0%  0.0%  0.0%  B16..8:  0.2%  0.0%  0.0%  direct: 0.1%  skip:99.6%  L0:42.4% L1:52.4% BI: 5.2%
[libx264 @ 0x55e5d1960f00] 8x8 transform intra:40.4% inter:64.4%
[libx264 @ 0x55e5d1960f00] coded y,uvDC,uvAC intra: 41.7% 74.3% 62.3% inter: 0.2% 0.4% 0.0%
[libx264 @ 0x55e5d1960f00] i16 v,h,dc,p: 31% 29%  9% 31%
[libx264 @ 0x55e5d1960f00] i8 v,h,dc,ddl,ddr,vr,hd,vl,hu: 32% 27% 25%  3%  2%  2%  3%  3%  4%
[libx264 @ 0x55e5d1960f00] i4 v,h,dc,ddl,ddr,vr,hd,vl,hu: 39% 29% 11%  3%  3%  3%  4%  3%  4%
[libx264 @ 0x55e5d1960f00] i8c dc,h,v,p: 45% 26% 12% 17%
[libx264 @ 0x55e5d1960f00] Weighted P-Frames: Y:0.1% UV:0.0%
[libx264 @ 0x55e5d1960f00] ref P L0: 82.9% 17.1%
[libx264 @ 0x55e5d1960f00] ref B L0: 83.5% 16.5%
[libx264 @ 0x55e5d1960f00] ref B L1: 96.9%  3.1%
[libx264 @ 0x55e5d1960f00] kb/s:13.80
[aac @ 0x55e5d17f4100] Qavg: 3831.778
